<svg xmlns="http://www.w3.org/2000/svg" viewBox="0 0 500 500"><g id="freepik--background-complete--inject-78"><rect y="382.4" width="500" height="0.25" style="fill:#ebebeb"></rect><rect x="416.78" y="398.49" width="33.12" height="0.25" style="fill:#ebebeb"></rect><rect x="322.53" y="401.21" width="8.69" height="0.25" style="fill:#ebebeb"></rect><rect x="396.59" y="389.21" width="19.19" height="0.25" style="fill:#ebebeb"></rect><rect x="52.46" y="390.89" width="43.19" height="0.25" style="fill:#ebebeb"></rect><rect x="104.56" y="390.89" width="6.33" height="0.25" style="fill:#ebebeb"></rect><rect x="131.47" y="395.11" width="93.68" height="0.25" style="fill:#ebebeb"></rect><path d="M237,337.8H43.91a5.71,5.71,0,0,1-5.7-5.71V60.66A5.71,5.71,0,0,1,43.91,55H237a5.71,5.71,0,0,1,5.71,5.71V332.09A5.71,5.71,0,0,1,237,337.8ZM43.91,55.2a5.46,5.46,0,0,0-5.45,5.46V332.09a5.46,5.46,0,0,0,5.45,5.46H237a5.47,5.47,0,0,0,5.46-5.46V60.66A5.47,5.47,0,0,0,237,55.2Z" style="fill:#ebebeb"></path><path d="M453.31,337.8H260.21a5.72,5.72,0,0,1-5.71-5.71V60.66A5.72,5.72,0,0,1,260.21,55h193.1A5.71,5.71,0,0,1,459,60.66V332.09A5.71,5.71,0,0,1,453.31,337.8ZM260.21,55.2a5.47,5.47,0,0,0-5.46,5.46V332.09a5.47,5.47,0,0,0,5.46,5.46h193.1a5.47,5.47,0,0,0,5.46-5.46V60.66a5.47,5.47,0,0,0-5.46-5.46Z" style="fill:#ebebeb"></path><rect x="350.92" y="65.82" width="65.31" height="12.7" style="fill:#f0f0f0"></rect><rect x="355.65" y="78.52" width="55.84" height="6.51" style="fill:#e0e0e0"></rect><rect x="361.45" y="85.03" width="44.23" height="290.78" style="fill:#f0f0f0"></rect><rect x="366.87" y="85.03" width="33.41" height="290.78" style="fill:#e0e0e0"></rect><rect x="376.76" y="85.03" width="13.63" height="290.78" style="fill:#f0f0f0"></rect><rect x="350.92" y="382.33" width="65.31" height="12.7" transform="translate(767.14 777.36) rotate(180)" style="fill:#f0f0f0"></rect><rect x="355.65" y="375.81" width="55.84" height="6.52" transform="translate(767.14 758.14) rotate(180)" style="fill:#e0e0e0"></rect><rect x="83.78" y="65.82" width="65.31" height="12.7" style="fill:#f0f0f0"></rect><rect x="88.51" y="78.52" width="55.84" height="6.51" style="fill:#e0e0e0"></rect><rect x="94.31" y="85.03" width="44.23" height="290.78" style="fill:#f0f0f0"></rect><rect x="99.73" y="85.03" width="33.41" height="290.78" style="fill:#e0e0e0"></rect><rect x="109.62" y="85.03" width="13.63" height="290.78" style="fill:#f0f0f0"></rect><rect x="83.78" y="382.33" width="65.31" height="12.7" transform="translate(232.86 777.36) rotate(180)" style="fill:#f0f0f0"></rect><rect x="88.51" y="375.81" width="55.84" height="6.52" transform="translate(232.86 758.14) rotate(180)" style="fill:#e0e0e0"></rect></g><g id="freepik--Shadow--inject-78"><ellipse id="freepik--path--inject-78" cx="250" cy="416.24" rx="193.89" ry="11.32" style="fill:#f5f5f5"></ellipse></g><g id="freepik--character-2--inject-78"><path d="M290,125.52s-5.72-1.61-21.07.61c0,0,.43,24.86,3,37.34a59.83,59.83,0,0,0,17.4-.94S286.39,134.51,290,125.52Z" style="fill:#fff"></path><path d="M290,125.52s-5.72-1.61-21.07.61c0,0,.43,24.86,3,37.34a59.83,59.83,0,0,0,17.4-.94S286.39,134.51,290,125.52Z" style="opacity:0.1"></path><path d="M272.89,182.15l-3.8-15.25s-4.18-2.51-4.53-5.3,4.09-10.56,4.95-10.55,6.47,4.2,6.46,5.44-1.12,7.86-1.12,7.86l7.63,14.79Z" style="fill:#e2877b"></path><polygon points="270.52 176.47 268.33 171.34 279.12 165.07 282.48 170.77 270.52 176.47" style="fill:#452B01"></polygon><polygon points="270.52 176.47 268.33 171.34 279.12 165.07 282.48 170.77 270.52 176.47" style="fill:#fff;opacity:0.8;isolation:isolate"></polygon><path d="M319.75,158.5c-6.48,4.3-20.87,25.24-24.43,24.93-4.6-.39-12.23-15.82-12.23-15.82l-14.16,8.53s16.58,33.48,25.83,31.37,26.78-27.79,28-31.57S327.79,153.16,319.75,158.5Z" style="fill:#263238"></path><path d="M319.75,158.5c-6.48,4.3-20.87,25.24-24.43,24.93-4.6-.39-12.23-15.82-12.23-15.82l-14.16,8.53s16.58,33.48,25.83,31.37,26.78-27.79,28-31.57S327.79,153.16,319.75,158.5Z" style="opacity:0.30000000000000004;isolation:isolate"></path><polygon points="317.53 407.61 309.42 408.47 307.9 390.97 316.01 390.11 317.53 407.61" style="fill:#e2877b"></polygon><polygon points="358.01 407.02 350.15 407.02 349.5 388.81 357.37 388.81 358.01 407.02" style="fill:#e2877b"></polygon><path d="M349.06,406.11h9.55a.68.68,0,0,1,.67.54l1.55,7a1.18,1.18,0,0,1-1.15,1.4c-3.09-.05-5.34-.24-9.22-.24-2.39,0-9.6.25-12.9.25s-3.73-3.26-2.38-3.56c6.06-1.32,10.62-3.15,12.56-4.89A1.89,1.89,0,0,1,349.06,406.11Z" style="fill:#263238"></path><path d="M346.46,407.49a2.38,2.38,0,0,1-1.51-.4,1.12,1.12,0,0,1-.39-1,.57.57,0,0,1,.32-.52c.87-.45,3.41,1.11,3.69,1.29a.16.16,0,0,1,.09.18.19.19,0,0,1-.14.16A9.47,9.47,0,0,1,346.46,407.49Zm-1.17-1.63a.4.4,0,0,0-.24.05c-.05,0-.11.07-.12.22a.77.77,0,0,0,.25.67,3.82,3.82,0,0,0,2.8.14A7.5,7.5,0,0,0,345.29,405.86Z" style="fill:#452B01"></path><path d="M348.47,407.21h-.09c-.81-.44-2.38-2.17-2.22-3a.61.61,0,0,1,.6-.49,1,1,0,0,1,.79.24c.91.74,1.1,3,1.11,3.11a.2.2,0,0,1-.09.17A.19.19,0,0,1,348.47,407.21ZM346.89,404h-.09c-.24,0-.26.14-.27.19-.1.51.9,1.82,1.71,2.43a4.38,4.38,0,0,0-.93-2.46A.65.65,0,0,0,346.89,404Z" style="fill:#452B01"></path><path d="M308.56,405.86h9.55a.68.68,0,0,1,.67.54l1.55,7a1.18,1.18,0,0,1-1.15,1.4c-3.09-.05-5.34-.24-9.22-.24-2.39,0-9.6.25-12.9.25s-3.73-3.26-2.38-3.56c6.06-1.32,10.62-3.15,12.56-4.89A1.89,1.89,0,0,1,308.56,405.86Z" style="fill:#263238"></path><path d="M306,407.24a2.38,2.38,0,0,1-1.51-.4,1.12,1.12,0,0,1-.39-1,.57.57,0,0,1,.32-.52c.87-.45,3.41,1.11,3.69,1.29a.16.16,0,0,1,.09.18.19.19,0,0,1-.14.16A9.47,9.47,0,0,1,306,407.24Zm-1.17-1.63a.4.4,0,0,0-.24.05c-.05,0-.11.07-.12.22a.77.77,0,0,0,.25.67,3.82,3.82,0,0,0,2.8.14A7.5,7.5,0,0,0,304.79,405.61Z" style="fill:#452B01"></path><path d="M308,407h-.09c-.81-.44-2.38-2.17-2.22-3a.61.61,0,0,1,.6-.49,1,1,0,0,1,.79.24c.91.74,1.1,3,1.11,3.11a.2.2,0,0,1-.09.17A.19.19,0,0,1,308,407Zm-1.58-3.19h-.09c-.24,0-.26.14-.27.19-.1.51.9,1.82,1.71,2.43a4.38,4.38,0,0,0-.93-2.46A.65.65,0,0,0,306.39,403.77Z" style="fill:#452B01"></path><polygon points="357.37 388.82 349.5 388.82 349.84 398.21 357.71 398.21 357.37 388.82" style="opacity:0.2;isolation:isolate"></polygon><path d="M354.13,229.08H312.4c-4,21.66-15.84,104.92-6.93,173.22l14.13-1.75s-1.86-97.27,10.61-130.79c1.44,17.94,3.14,37,4.62,47.18,3.63,25,11.74,84.22,11.74,84.22H361s-3.28-56.88-4.64-81.45C354.82,293,354.18,234.56,354.13,229.08Z" style="fill:#263238"></path><g style="opacity:0.30000000000000004;isolation:isolate"><path d="M354.13,229.08H312.4c-4,21.66-15.84,104.92-6.93,173.22l14.13-1.75s-1.86-97.27,10.61-130.79c1.44,17.94,3.14,37,4.62,47.18,3.63,25,11.74,84.22,11.74,84.22H361s-3.28-56.88-4.64-81.45C354.82,293,354.18,234.56,354.13,229.08Z"></path></g><path d="M310.72,239.16s12.3,2.84,20.87,0l-.77-6.67-19.95,0Z" style="opacity:0.4;isolation:isolate"></path><path d="M316.91,240.13a49.54,49.54,0,0,0,7.92.22V232.5l-7.92,0Z" style="fill:#fff;opacity:0.1"></path><path d="M330.21,269.76a111.8,111.8,0,0,0-4.66,18.05c-1.17-16,3.5-32.9,3.5-32.9Z" style="opacity:0.2;isolation:isolate"></path><path d="M348.63,134s-.31,7.66-6.28,5.86S343.36,131.29,348.63,134Z" style="fill:#263238"></path><path d="M330.82,153.16a8,8,0,0,0,2.75-8.41l10.8-8.71s-1.4,10.69,1.21,16.35c0,0-6.52,6.61-11.49,5.1S330.82,153.16,330.82,153.16Z" style="fill:#e2877b"></path><path d="M341.94,141.26l-4.27.18-4.1,3.31a8.61,8.61,0,0,1-.05,4.43C340.06,148.13,341.94,141.26,341.94,141.26Z" style="opacity:0.2;isolation:isolate"></path><path d="M341.66,160.88l-8.94-3.39-7.51.56s-7.94,18.1-10.88,36.79a297.83,297.83,0,0,0-3,39.26c.27-.06,11,2.29,20.95-1.09,0,0-6.63-28-3-40.83s12.34-31.3,12.34-31.3" style="fill:#452B01"></path><path d="M341.66,160.88l-8.94-3.39-7.51.56s-7.94,18.1-10.88,36.79a297.83,297.83,0,0,0-3,39.26c.27-.06,11,2.29,20.95-1.09,0,0-6.63-28-3-40.83s12.34-31.3,12.34-31.3" style="fill:#fff;opacity:0.8;isolation:isolate"></path><path d="M329.22,157.75l.54,4.92s-6.65,12.93-9,21.58-4.29,34.88-4.29,34.88l4.16,7.15,3.82-7.15s-1-21,2.06-35.16,4.75-20.52,4.75-20.52l4.6-3.33-3.12-2.63Z" style="opacity:0.4;isolation:isolate"></path><polygon points="330.82 153.16 333.9 156.22 345.57 152.39 336.87 165.27 332.56 158.35 325.54 160.34 330.82 153.16" style="fill:#fff"></polygon><path d="M330.82,153.16s-16.07,3.51-19.5,18-5.45,77.77-5.95,82.87,9.57,5.73,9.57,5.73-.54-32.73.28-41.42c.3-3.14.76-13.74,2.18-22C319.91,181.72,324.27,162.92,330.82,153.16Z" style="fill:#263238"></path><path d="M327.49,154.33c-2.18,1.92-7.39,6-10,10.31l4.06,2.15L316,170.32s.46,15.59,1.82,23.76c2.56-14.22,6.8-31.65,13-40.92C330.82,153.16,329.5,153.53,327.49,154.33Z" style="fill:#263238"></path><path d="M327.49,154.33c-2.18,1.92-7.39,6-10,10.31l4.06,2.15L316,170.32s.46,15.59,1.82,23.76c2.56-14.22,6.8-31.65,13-40.92C330.82,153.16,329.5,153.53,327.49,154.33Z" style="fill:#fff;opacity:0.1;isolation:isolate"></path><path d="M318.51,119.6s-.56,5.88,4,7.19c0,0,2.61-6.57-.56-7.19S318.51,119.6,318.51,119.6Z" style="fill:#263238"></path><path d="M322.46,136.16c.73,4.16,3.85,12.88,12.68,10.22s9.2-9.63,9.35-11.64-1.73-17.61-7.37-19.1-12.5.35-14.66,3.58S322.46,136.16,322.46,136.16Z" style="fill:#e2877b"></path><path d="M344,129.71c.14.18-5.84,3.76-5.65-8.61,0,0-4.33,1.84-5.33-3.07,0,0-18.1,6.24-16.3-.8,2.41-9.4,17.05-10.11,23.36-5.19,0,0,3.13-3.51,6.08.27,3.53,4.52,3.47,16.77,3.47,16.77Z" style="fill:#263238"></path><path d="M348.5,128.12c-2.12-3.33-11.59.16-13.43.88l-.06-.47a1.3,1.3,0,0,0-.52-.86,1.26,1.26,0,0,0-1-.19l-3.89.84a1.25,1.25,0,0,0-1,1.42c0,.12.05.27.07.4a2,2,0,0,0-1.89.27l0-.32a1.27,1.27,0,0,0-.5-.83,1.22,1.22,0,0,0-.93-.23l-3.27.49a1.25,1.25,0,0,0-1.06,1.34c.06.71.13,1.34.2,1.85a1.25,1.25,0,0,0,.5.82,1.21,1.21,0,0,0,.74.24h.18l3.33-.49a1.25,1.25,0,0,0,1.06-1.42l-.12-.86a1.54,1.54,0,0,1,1.9-.24c.05.27.1.55.15.81a1.26,1.26,0,0,0,.53.8,1.24,1.24,0,0,0,.69.21,1.09,1.09,0,0,0,.26,0l3.82-.78a1.26,1.26,0,0,0,1-1.4l-.12-.85c1.42-.55,11-4.16,12.94-1.12a.25.25,0,0,0,.35.07A.24.24,0,0,0,348.5,128.12Zm-22.59,4.66-3.33.48a.78.78,0,0,1-.56-.13.74.74,0,0,1-.29-.49c-.07-.5-.14-1.12-.2-1.83a.75.75,0,0,1,.64-.8l3.27-.49h.11a.82.82,0,0,1,.45.14.76.76,0,0,1,.29.5l.26,1.77A.76.76,0,0,1,325.91,132.78Zm8.26-1.51-3.82.78a.76.76,0,0,1-.57-.11.74.74,0,0,1-.32-.47c-.11-.61-.23-1.28-.31-1.81a.74.74,0,0,1,.58-.85l3.88-.84a.47.47,0,0,1,.16,0,.73.73,0,0,1,.43.13.76.76,0,0,1,.32.52l.24,1.83A.75.75,0,0,1,334.17,131.27Z"></path><path d="M332.65,129.78c.15.61-.13,1.18-.55,1.25s-.82-.38-.93-1,.14-1.19.55-1.26S332.54,129.15,332.65,129.78Z" style="fill:#263238"></path><path d="M324.89,131c.15.62-.14,1.19-.55,1.26s-.82-.39-.93-1,.14-1.18.55-1.25S324.79,130.39,324.89,131Z" style="fill:#263238"></path><path d="M327.88,130.91a22.24,22.24,0,0,1-2.07,5.86,3.65,3.65,0,0,0,3.1,0Z" style="fill:#dc5753"></path><path d="M334,126.06a.36.36,0,0,1-.36.14,3,3,0,0,0-2.59.72.38.38,0,1,1-.55-.51h0a3.72,3.72,0,0,1,3.26-.94.39.39,0,0,1,.32.42h0A.46.46,0,0,1,334,126.06Z" style="fill:#263238"></path><path d="M330.48,139.88h0a5.74,5.74,0,0,0,4.63-2.52.2.2,0,0,0-.07-.27.19.19,0,0,0-.26,0v0a5.46,5.46,0,0,1-4.31,2.32.18.18,0,0,0-.19.19v0a.19.19,0,0,0,.19.19Z" style="fill:#263238"></path><path d="M322.22,127.18a.32.32,0,0,1,0-.62h0a3.7,3.7,0,0,1,3.39.26.37.37,0,0,1,.09.52h0a.39.39,0,0,1-.52.09h0a3,3,0,0,0-2.69-.17A.37.37,0,0,1,322.22,127.18Z" style="fill:#263238"></path><path d="M345.58,152.39s10.69,6.24,16.21,8.58-2.85,40.43-3.06,47,5.76,51.7,5.76,51.7-17,4.43-30.93,1.12c0,0-9.84-37.54-8.63-57.21C326.1,184.64,331.78,166,345.58,152.39Z" style="fill:#263238"></path><path d="M350,154.91c-2.53-1.43-4.37-2.52-4.37-2.52-13.35,13.16-19.08,31-20.5,49.31,5.78-14.11,19.25-27,19.25-27l-4.16-6.09,7.63-.6A51.46,51.46,0,0,1,350,154.91Z" style="fill:#263238"></path><path d="M350,154.91c-2.53-1.43-4.37-2.52-4.37-2.52-13.35,13.16-19.08,31-20.5,49.31,5.78-14.11,19.25-27,19.25-27l-4.16-6.09,7.63-.6A51.46,51.46,0,0,1,350,154.91Z" style="fill:#fff;opacity:0.1;isolation:isolate"></path><path d="M345.38,177.31a.34.34,0,0,0-.36-.3l-24,2v1.68h-2.53l3.22,38.83c0,.18.13.18.14.31l.26,0,.21-.3.8-.07.26.26,25.05-2.11a.33.33,0,0,0,.31-.35Z" style="fill:#452B01"></path><path d="M319.42,216.9a3.25,3.25,0,0,0,2.39,3c-.17-2.05-.41-4-.41-4s-2.19-29.79-2.76-36.62a2.73,2.73,0,0,0-2.18,2.55c.08.93.24,2.82.24,2.82S318.79,209.48,319.42,216.9Z" style="fill:#452B01"></path><path d="M319.42,216.9a3.25,3.25,0,0,0,2.39,3c-.17-2.05-.41-4-.41-4s-2.19-29.79-2.76-36.62a2.73,2.73,0,0,0-2.18,2.55c.08.93.24,2.82.24,2.82S318.79,209.48,319.42,216.9Z" style="opacity:0.2;isolation:isolate"></path><path d="M321.82,219l25.88-2.1-1.5-4.44-24.75,2.09a2.1,2.1,0,0,0-1.08,2.33A2.51,2.51,0,0,0,321.82,219Z" style="fill:#452B01"></path><path d="M321.82,219l25.88-2.1-1.5-4.44-24.75,2.09a2.1,2.1,0,0,0-1.08,2.33A2.51,2.51,0,0,0,321.82,219Z" style="fill:#fff;opacity:0.6000000000000001"></path><path d="M347.24,212.52l-24.44,2.06-.19-.13-.76.07-.16.15-.32,0a.07.07,0,0,1-.07-.06l-3-35.31s0-.07.06-.07l.37,0,.15.27.76-.06.18-.3,24.42-2.06a.09.09,0,0,1,.07.06l3,35.31A.07.07,0,0,1,347.24,212.52Z" style="fill:#452B01"></path><path d="M341.64,197.13l-17.17,1.44-1.22-14.46,17.17-1.45Zm-16.36.36,15.38-1.29-1.05-12.46L324.23,185Z" style="opacity:0.30000000000000004;isolation:isolate"></path><path d="M316.91,187.11a3.26,3.26,0,0,1,1.88-2.26c0,.27,0,.38.09,1.12a4.47,4.47,0,0,0-1.85,2.6Z" style="opacity:0.30000000000000004;isolation:isolate"></path><path d="M318.76,209.14a3.28,3.28,0,0,1,1.88-2.27c0,.27.05.39.1,1.13a4.41,4.41,0,0,0-1.85,2.6Z" style="opacity:0.30000000000000004;isolation:isolate"></path><rect x="320.38" y="179.41" width="0.76" height="35.14" transform="translate(-15.4 27.62) rotate(-4.81)" style="opacity:0.30000000000000004;isolation:isolate"></rect><rect x="327.48" y="201.96" width="12.09" height="1.67" transform="translate(-15.84 28.71) rotate(-4.81)" style="fill:#452B01"></rect><rect x="330.45" y="205.59" width="6.76" height="1.67" transform="translate(-16.15 28.75) rotate(-4.81)" style="fill:#452B01"></rect><path d="M321.78,216.49l23.14-2s-7.05.46-15.77,1.2C325.45,216.05,321.78,216.49,321.78,216.49Z" style="opacity:0.30000000000000004;isolation:isolate"></path><path d="M321.85,217.39l23.2-2.16-15.83,1.33C325.52,216.87,321.85,217.39,321.85,217.39Z" style="opacity:0.30000000000000004;isolation:isolate"></path><path d="M321.92,218.2,345.23,216l-15.94,1.35C325.59,217.68,321.92,218.2,321.92,218.2Z" style="opacity:0.30000000000000004;isolation:isolate"></path><path d="M326.52,215.22l.38,4.55-1.63-1.53L323.91,220s-.09-1.12-.38-4.6C324.43,215.32,325.79,215.28,326.52,215.22Z" style="fill:#452B01"></path><path d="M326.52,215.22l.38,4.55-1.63-1.53L323.91,220s-.09-1.12-.38-4.6C324.43,215.32,325.79,215.28,326.52,215.22Z" style="opacity:0.30000000000000004;isolation:isolate"></path><path d="M321.71,215.63l23.41-1.84s-7.32.34-16,1.08C325.38,215.18,321.71,215.63,321.71,215.63Z" style="opacity:0.30000000000000004;isolation:isolate"></path><path d="M347.31,212.51l-1.37.12a2.9,2.9,0,0,0-.08,2.18,2.56,2.56,0,0,0,1.81,2Z" style="fill:#452B01"></path><path d="M340.46,214.8l-14.28-6.6s-4.58,1.69-7,.22-5.68-9.8-5.13-10.47,7.33-2.41,8.28-1.63,5.43,5.8,5.43,5.8l16.31,3.32Z" style="fill:#e2877b"></path><polygon points="336.47 200.91 330.75 200.57 331.36 213.44 337.44 214.46 336.47 200.91" style="fill:#fff"></polygon><polygon points="336.47 200.91 330.75 200.57 331.36 213.44 337.44 214.46 336.47 200.91" style="fill:#452B01"></polygon><polygon points="336.47 200.91 330.75 200.57 331.36 213.44 337.44 214.46 336.47 200.91" style="fill:#fff;opacity:0.8;isolation:isolate"></polygon><path d="M357.88,159.68c9.55,1,13.39,15.41,14.72,22.61,1.3,7,4.84,28.89-3.21,34.8s-33.57-.57-33.57-.57L334.46,199s13.71,3.09,19.63.79c5-1.93,2.67-19.76,2.15-23C355.5,172.24,353.39,159.2,357.88,159.68Z" style="fill:#263238"></path><path d="M357.88,159.68c9.55,1,13.39,15.41,14.72,22.61,1.3,7,4.84,28.89-3.21,34.8s-33.57-.57-33.57-.57L334.46,199s13.71,3.09,19.63.79c5-1.93,2.67-19.76,2.15-23C355.5,172.24,353.39,159.2,357.88,159.68Z" style="opacity:0.30000000000000004;isolation:isolate"></path><path d="M342.1,130.67s1.58-4.37,5.62-4.39c3.24,0,3.71,4.05,2.23,6.85-1.13,2.15-4.84,4.84-7.2,2S342.1,130.67,342.1,130.67Z" style="fill:#e2877b"></path></g><g id="freepik--character-1--inject-78"><polygon points="145.38 329.06 145.02 344.63 143.38 415.06 137.97 415.06 136.34 344.63 135.98 329.06 145.38 329.06" style="fill:#457bfb"></polygon><polygon points="145.38 329.06 145.02 344.63 143.38 415.06 137.97 415.06 136.34 344.63 135.98 329.06 145.38 329.06" style="fill:#fff;opacity:0.4;isolation:isolate"></polygon><polygon points="145.38 329.06 145.02 345.06 136.34 345.06 135.98 329.06 145.38 329.06" style="opacity:0.2;isolation:isolate"></polygon><polygon points="174.76 414.81 169.76 330.16 161.59 330.16 168.59 414.81 174.76 414.81" style="fill:#457bfb"></polygon><polygon points="168.57 414.81 174.75 414.81 170.21 337.76 169.76 330.06 161.59 330.06 162.22 337.76 168.57 414.81" style="fill:#fff;opacity:0.5;isolation:isolate"></polygon><polygon points="161.59 330.06 162.22 338.06 170.21 338.06 169.76 330.06 161.59 330.06" style="opacity:0.2;isolation:isolate"></polygon><polygon points="112.77 414.81 119.76 330.16 111.59 330.16 106.6 414.81 112.77 414.81" style="fill:#457bfb"></polygon><polygon points="112.78 414.81 119.13 337.76 119.76 330.06 111.59 330.06 111.14 337.76 106.6 414.81 112.78 414.81" style="fill:#fff;opacity:0.5;isolation:isolate"></polygon><polygon points="119.76 330.06 119.13 338.06 111.14 338.06 111.59 330.06 119.76 330.06" style="opacity:0.2;isolation:isolate"></polygon><path d="M112.22,321.39h56.92a5,5,0,0,1,5,5v6.69a0,0,0,0,1,0,0H107.22a0,0,0,0,1,0,0v-6.69A5,5,0,0,1,112.22,321.39Z"></path><rect x="104.01" y="327.24" width="73.33" height="5.84" rx="2.01" style="fill:#457bfb"></rect><rect x="104.01" y="327.24" width="73.33" height="5.84" rx="2.01" style="fill:#fff;opacity:0.6000000000000001;isolation:isolate"></rect><g id="freepik--group--inject-78"><path d="M176.88,245.66s20.14,20.9,21.36,22,8.73,3.52,9.84,4.48-.76,8-1.5,9.35-11.36-4.45-12-5.4a21.21,21.21,0,0,1-1.5-3.68l-22.86-19.2Z" style="fill:#e9b076"></path><path d="M159.91,225.43s.06.81.22,2.15.4,3.36.76,5.6c.87,5.45,2.39,12.46,4.83,16.7a9.32,9.32,0,0,0,2.41,2.91c3.2,2.38,17.33,17.93,17.33,17.93l7.51-9.55L183,248.55s-6.58-37.17-16.61-40.07C162.05,207.22,159.91,225.43,159.91,225.43Z" style="fill:#452B01"></path><path d="M159.91,225.43s.06.81.22,2.15.4,3.36.76,5.6c.87,5.45,2.39,12.46,4.83,16.7a9.32,9.32,0,0,0,2.41,2.91c3.2,2.38,17.33,17.93,17.33,17.93l7.51-9.55L183,248.55s-6.58-37.17-16.61-40.07C162.05,207.22,159.91,225.43,159.91,225.43Z" style="opacity:0.6000000000000001"></path><polygon points="169.02 407.84 176.99 406.74 178.09 387.81 170.14 388.91 169.02 407.84" style="fill:#e9b076"></polygon><polygon points="170.14 388.91 178.09 387.82 177.46 398.64 169.51 399.34 170.14 388.91" style="opacity:0.2;isolation:isolate"></polygon><path d="M169.34,296.52l-1.94-12.18-44.66-2.67S118,307,121.64,313.76c6.51,12.05,41.62,6,51.89,7.15C167.39,346,168,395.09,168,395.09l14.67,1.12s11.29-52.87,13.57-78C197.77,301.26,183.72,301.68,169.34,296.52Z" style="fill:#452B01"></path><polygon points="166.27 395.78 183.9 396.94 185.41 389.39 166.04 388.49 166.27 395.78" style="fill:#457bfb"></polygon><polygon points="187.4 400.77 195.42 401.36 200.44 383.06 192.43 382.49 187.4 400.77" style="fill:#e9b076"></polygon><path d="M196.53,401.71s0,.05,0,.07a.09.09,0,0,0,.07,0,10,10,0,0,0,2,.85,2.15,2.15,0,0,0,1.56,0,1,1,0,0,0,.51-.94.72.72,0,0,0-.27-.63,3.24,3.24,0,0,0-2.25-.06,2.92,2.92,0,0,0,1.18-1.63.71.71,0,0,0-.48-.73.92.92,0,0,0-.81,0c-1,.53-1.35,2.77-1.38,2.89h0l-.14,0S196.51,401.69,196.53,401.71Zm.6-.44-.18.05c.19-.74.59-1.95,1.18-2.26a.53.53,0,0,1,.43-.06l.08,0c.25.11.28.25.27.36C198.84,399.93,197.92,400.83,197.13,401.27Zm0,.41c1.06-.32,2.53-.61,3-.27a.36.36,0,0,1,.13.31.71.71,0,0,1-.31.61C199.5,402.58,198.47,402.34,197.16,401.68Z" style="fill:#452B01"></path><polygon points="192.43 382.49 200.44 383.07 197.57 393.53 189.65 392.56 192.43 382.49" style="opacity:0.2;isolation:isolate"></polygon><path d="M203.16,392.24,189,388.09s8.43-47.58,17-64.08c-.64-.21-1.49-.48-2.54-.79-1.89-.57-4.4-1.28-7.35-2.1C175.61,315.43,134,304.76,134,304.76L153,287s75.68,11.54,77.25,31.48C231,328.1,203.16,392.24,203.16,392.24Z" style="fill:#452B01"></path><polygon points="187.22 388.4 204.22 393.21 207.27 386.14 188.51 381.22 187.22 388.4" style="fill:#457bfb"></polygon><path d="M203.48,323.22c-1.89-.57-4.4-1.28-7.35-2.1.59-4.84.6-10.39-1.73-13.22-4.63-5.64-16.54-8.95-23.32-10.15-5.67-1-24.72-3-24.72-3s24.72-2.37,50,5C208.84,303.41,206.41,315.62,203.48,323.22Z" style="opacity:0.2;isolation:isolate"></path><path d="M120.26,294.4c-3-2.29-.12-23.59-1.65-44.55-2.33-31.89,2.68-42.28,5-43.28a57.44,57.44,0,0,1,10.45-1.15,165.88,165.88,0,0,1,19.31.41,86,86,0,0,1,13,2.65s10.53,33.5,3.8,81.75Z" style="fill:#452B01"></path><g style="opacity:0.5;isolation:isolate"><path d="M120.26,294.4c-3-2.29-.12-23.59-1.65-44.55-2.33-31.89,2.68-42.28,5-43.28a57.44,57.44,0,0,1,10.45-1.15,165.88,165.88,0,0,1,19.31.41,86,86,0,0,1,13,2.65s10.53,33.5,3.8,81.75Z"></path></g><path d="M136.47,183.77c1.08,6.23,2.05,17.64-2.38,21.7a19.92,19.92,0,0,0,14,6.35c8,.35,5.3-5.94,5.3-5.94-6.89-1.8-6.6-6.94-5.29-11.74Z" style="fill:#e2877b"></path><path d="M141.21,188l6.89,6.15a19.59,19.59,0,0,0-.67,3.41c-2.64-.44-6.21-3.42-6.43-6.2A9.06,9.06,0,0,1,141.21,188Z" style="opacity:0.2;isolation:isolate"></path><path d="M158.81,175.46s6.33,1.34,7.2-2.61-.7-4.63,1.18-6.53.67-8.39-4.18-7.11-7.39-5.39-11.41-4.48-4.64,3.71-7.17,4.37-7.55-2.61-10.77-.67-.74,6.1-1.83,7.69-3.75,5.64,0,11.58c3.44,5.44-.84,8.17-3.06,7.66a.5.5,0,0,0-.63.52c.06.63.43,1.52,1.94,2.08,2.52.94,3-.43,3.58.29s1.84,3.09,6,.66S145.85,171.11,158.81,175.46Z" style="fill:#263238"></path><path d="M158.9,184.44c-.72,4.16-3.84,12.88-12.67,10.22S137,185,136.88,183s1.72-17.62,7.37-19.1,12.5.35,14.65,3.57S158.9,184.44,158.9,184.44Z" style="fill:#e2877b"></path><path d="M148.71,178.06c-.15.61.14,1.19.55,1.26s.83-.39.94-1-.15-1.19-.55-1.25S148.82,177.43,148.71,178.06Z" style="fill:#263238"></path><path d="M155.69,179.27c-.15.61.14,1.19.55,1.25s.82-.38.93-1-.14-1.19-.55-1.26S155.79,178.68,155.69,179.27Z" style="fill:#263238"></path><path d="M153.48,179.19a23,23,0,0,0,2.07,5.86,3.69,3.69,0,0,1-3.1,0Z" style="fill:#dc5753"></path><path d="M151.41,174.15a.41.41,0,0,0-.39,0,3,3,0,0,1-2.66.4.37.37,0,0,0-.49.19.37.37,0,0,0,.2.49h0a3.69,3.69,0,0,0,3.36-.46.38.38,0,0,0,.12-.51h0A.8.8,0,0,0,151.41,174.15Z" style="fill:#263238"></path><path d="M147.9,187.78h0a5.73,5.73,0,0,1,5.21.78.19.19,0,0,1,0,.28.2.2,0,0,1-.27,0h0a5.42,5.42,0,0,0-4.84-.7.21.21,0,0,1-.25-.12v0a.18.18,0,0,1,.11-.24Z" style="fill:#263238"></path><path d="M156.62,174.59a.41.41,0,0,0-.22,0,.37.37,0,0,0-.21.48h0a3.71,3.71,0,0,0,2.52,2.28.38.38,0,0,0,.44-.29h0a.38.38,0,0,0-.29-.44h0a3,3,0,0,1-2-1.84A.41.41,0,0,0,156.62,174.59Z" style="fill:#263238"></path><path d="M163.1,167.15c1.84,2.17-4.14,5.23-6.47,3.57-2-1.44-4.18-3.1-6.82-1.52s-2.89.2-4.71.2.72,3.9-1.79,5.62c-1.44,1-3.51,1.49-2.86,3.24s-.32,4.19-2.82,3.74c0,0,2.34-.66.88-3.05s-2.72-1-2.72-1,.7-13.17,7-15.59S160.06,163.57,163.1,167.15Z" style="fill:#263238"></path><path d="M139.26,179s-1.58-4.37-5.61-4.38c-3.25,0-3.71,4-2.24,6.85,1.14,2.15,4.65,4.66,7.2,2C140.12,181.88,139.26,179,139.26,179Z" style="fill:#e2877b"></path><path d="M150.71,256.29s27.68,8.73,29.27,9.1,9.35-1.09,10.78-.77,3.17,7.39,3.16,8.93-12.11,1.51-13.12,1a21,21,0,0,1-3.09-2.52l-29.25-5.94Z" style="fill:#e9b076"></path><path d="M123.64,206.57c-15.58,1.43-4.06,46.69,2.26,53.21s28,8.86,28,8.86l2.75-12.17s-16.31-4.35-19.2-6.23-4.92-20.65-6.64-29.78A25.91,25.91,0,0,0,123.64,206.57Z" style="fill:#452B01"></path><path d="M123.64,206.57c-15.58,1.43-4.06,46.69,2.26,53.21s28,8.86,28,8.86l2.75-12.17s-16.31-4.35-19.2-6.23-4.92-20.65-6.64-29.78A25.91,25.91,0,0,0,123.64,206.57Z" style="opacity:0.6000000000000001"></path><polygon points="166.27 395.78 183.9 396.94 185.41 389.39 166.04 388.49 166.27 395.78" style="fill:#fff;opacity:0.2"></polygon><polygon points="187.22 388.4 204.22 393.21 207.27 386.14 188.51 381.22 187.22 388.4" style="fill:#fff;opacity:0.2"></polygon><path d="M196.21,400.54l-8.69-2.42a.57.57,0,0,0-.72.36h0l-2.34,6.76a1.42,1.42,0,0,0,1,1.75c3,.79,4.53,1,8.36,2.06,2.35.65,6.93,2.15,10.28,2.53s3.63-2.94,2.25-3.39c-3.28-1.1-7.2-4.52-8.91-6.84A2.23,2.23,0,0,0,196.21,400.54Z" style="fill:#263238"></path><path d="M177.78,406.77a1,1,0,0,1,.17,0s.18,0,.2.07,0,.05,0,.06h.06a10.85,10.85,0,0,0,2.1.42,2.22,2.22,0,0,0,1.53-.3,1,1,0,0,0,.29-1,.72.72,0,0,0-.41-.56,3.25,3.25,0,0,0-2.22.41,2.91,2.91,0,0,0,.79-1.84.76.76,0,0,0-.68-.6,1.19,1.19,0,0,0-.9.2c-.83.73-1,3-1,3.14h0Zm.86-.47-.16.09a4,4,0,0,1,.68-2.46.56.56,0,0,1,.41-.14h.09c.26.05.33.19.33.29A3.72,3.72,0,0,1,178.64,406.3Zm.12.4c1-.54,2.34-1.12,2.86-.89a.36.36,0,0,1,.19.28.71.71,0,0,1-.18.66C181.23,407.09,180.18,407.07,178.76,406.7Z" style="fill:#452B01"></path><path d="M177.59,405.78l-9-.56a.59.59,0,0,0-.63.51h0l-.88,7.1a1.42,1.42,0,0,0,1.31,1.5c3.14.15,4.65.06,8.61.28,2.43.14,7.22.66,10.58.33s2.94-3.63,1.49-3.79c-3.43-.39-8-2.91-10.13-4.83A2.25,2.25,0,0,0,177.59,405.78Z" style="fill:#263238"></path></g><polygon points="155.06 221.73 167.49 220.57 168.12 223.8 155.82 225.52 155.06 221.73" style="fill:#fff;opacity:0.30000000000000004;isolation:isolate"></polygon></g><g id="freepik--Table--inject-78"><path d="M83.12,258H214.21a0,0,0,0,1,0,0v5.51a2.16,2.16,0,0,1-2.16,2.16H85.29a2.16,2.16,0,0,1-2.16-2.16V258A0,0,0,0,1,83.12,258Z" style="fill:#263238"></path><path d="M83.12,258H214.21a0,0,0,0,1,0,0v5.51a2.16,2.16,0,0,1-2.16,2.16H85.29a2.16,2.16,0,0,1-2.16-2.16V258A0,0,0,0,1,83.12,258Z" style="fill:#fff;opacity:0.30000000000000004;isolation:isolate"></path><rect x="83.12" y="257.97" width="131.08" height="3.84" style="opacity:0.2;isolation:isolate"></rect><path d="M218,259H79.33a2.16,2.16,0,0,1-2.17-2.16h0a2.17,2.17,0,0,1,2.17-2.16H218a2.16,2.16,0,0,1,2.16,2.16h0A2.15,2.15,0,0,1,218,259Z" style="fill:#263238"></path><path d="M218,259H79.33a2.16,2.16,0,0,1-2.17-2.16h0a2.17,2.17,0,0,1,2.17-2.16H218a2.16,2.16,0,0,1,2.16,2.16h0A2.15,2.15,0,0,1,218,259Z" style="fill:#fff;opacity:0.30000000000000004;isolation:isolate"></path><rect x="86.35" y="265.65" width="56.69" height="149.41" transform="translate(229.39 680.71) rotate(180)" style="fill:#263238"></rect><rect x="86.35" y="265.65" width="56.69" height="149.41" transform="translate(229.39 680.71) rotate(180)" style="fill:#fff;opacity:0.2;isolation:isolate"></rect><rect x="143.04" y="265.65" width="116.54" height="149.41" style="fill:#263238"></rect><rect x="143.04" y="265.65" width="116.54" height="149.41" style="fill:#fff;opacity:0.39;isolation:isolate"></rect><path d="M140.66,258H261.74a0,0,0,0,1,0,0v5.51a2.16,2.16,0,0,1-2.16,2.16H142.82a2.16,2.16,0,0,1-2.16-2.16V258A0,0,0,0,1,140.66,258Z" style="fill:#263238"></path><path d="M140.66,258H261.74a0,0,0,0,1,0,0v5.51a2.16,2.16,0,0,1-2.16,2.16H142.82a2.16,2.16,0,0,1-2.16-2.16V258A0,0,0,0,1,140.66,258Z" style="fill:#fff;opacity:0.6000000000000001;isolation:isolate"></path><rect x="140.66" y="257.97" width="121.08" height="3.84" style="opacity:0.2;isolation:isolate"></rect><path d="M265.54,259H136.86a2.16,2.16,0,0,1-2.16-2.16h0a2.16,2.16,0,0,1,2.16-2.16H265.54a2.16,2.16,0,0,1,2.16,2.16h0A2.16,2.16,0,0,1,265.54,259Z" style="fill:#263238"></path><path d="M265.54,259H136.86a2.16,2.16,0,0,1-2.16-2.16h0a2.16,2.16,0,0,1,2.16-2.16H265.54a2.16,2.16,0,0,1,2.16,2.16h0A2.16,2.16,0,0,1,265.54,259Z" style="fill:#fff;opacity:0.6000000000000001;isolation:isolate"></path><g style="opacity:0.30000000000000004;isolation:isolate"><path d="M237.74,398.38H164.66V277.74h73.08Zm-66.63-6.45h60.18V284.19H171.11Z" style="fill:#fff"></path><rect x="182.39" y="297.92" width="37.62" height="80.28" style="fill:#fff"></rect></g></g><g id="freepik--police-badges--inject-78"><rect x="203.9" y="203.92" width="51.28" height="38.26" rx="3.84" style="fill:#452B01"></rect><path d="M248.46,219.18s14.28,10.27,31.91-3.56c0,0-16,22.83-37.26,11.88Z" style="fill:#452B01;fill-rule:evenodd"></path><rect x="214.41" y="201.4" width="30.26" height="43.28" transform="translate(452.59 -6.5) rotate(90)" style="fill:#fff;opacity:0.39;isolation:isolate"></rect><path d="M228.84,235.56a12.62,12.62,0,0,0-3.66-2.25,9.5,9.5,0,0,1-6.36-8.22,7.78,7.78,0,0,1,.77-4.21c.31-.62.72-1.16,1.07-1.75a3.57,3.57,0,0,0,0-3.63c-.12-.19-.27-.38-.38-.58a1.38,1.38,0,0,1,0-1.45,1.87,1.87,0,0,1,.29-.34l1.17-1.14a1.91,1.91,0,0,1,.41-.33,1.46,1.46,0,0,1,1.22-.11c.14,0,.27.13.42.18a5.09,5.09,0,0,0,5.24-1.26.69.69,0,0,1,1,0,5,5,0,0,0,5.26,1.28c.15-.06.28-.13.42-.18a1.46,1.46,0,0,1,1.22.11,1.91,1.91,0,0,1,.41.33l1.17,1.14a1.87,1.87,0,0,1,.29.34,1.38,1.38,0,0,1,0,1.45c-.11.2-.26.39-.38.58a3.57,3.57,0,0,0,0,3.63c.34.59.76,1.13,1.06,1.75a7.78,7.78,0,0,1,.77,4.21,9.5,9.5,0,0,1-6.36,8.22,12.89,12.89,0,0,0-3.63,2.22,1,1,0,0,1-1.43,0Z" style="fill:#452B01;fill-rule:evenodd"></path><path d="M228.84,235.56a12.62,12.62,0,0,0-3.66-2.25,9.5,9.5,0,0,1-6.36-8.22,7.78,7.78,0,0,1,.77-4.21c.31-.62.72-1.16,1.07-1.75a3.57,3.57,0,0,0,0-3.63c-.12-.19-.27-.38-.38-.58a1.38,1.38,0,0,1,0-1.45,1.87,1.87,0,0,1,.29-.34l1.17-1.14a1.91,1.91,0,0,1,.41-.33,1.46,1.46,0,0,1,1.22-.11c.14,0,.27.13.42.18a5.09,5.09,0,0,0,5.24-1.26.69.69,0,0,1,1,0,5,5,0,0,0,5.26,1.28c.15-.06.28-.13.42-.18a1.46,1.46,0,0,1,1.22.11,1.91,1.91,0,0,1,.41.33l1.17,1.14a1.87,1.87,0,0,1,.29.34,1.38,1.38,0,0,1,0,1.45c-.11.2-.26.39-.38.58a3.57,3.57,0,0,0,0,3.63c.34.59.76,1.13,1.06,1.75a7.78,7.78,0,0,1,.77,4.21,9.5,9.5,0,0,1-6.36,8.22,12.89,12.89,0,0,0-3.63,2.22,1,1,0,0,1-1.43,0Z" style="fill-rule:evenodd;opacity:0.30000000000000004"></path><path d="M229.54,232a15.88,15.88,0,0,1,1.46-.84c.81-.42,1.67-.74,2.48-1.16a6.71,6.71,0,0,0,2.45-2.06,5.87,5.87,0,0,0,.83-1.66,6,6,0,0,0,.23-2.85,6.52,6.52,0,0,0-1-2.15,7.92,7.92,0,0,1-1.23-3,6.73,6.73,0,0,1,.34-3.3,8.27,8.27,0,0,1-1,.12,8.52,8.52,0,0,1-4.59-1.09,8.86,8.86,0,0,1-1.48.65A8.57,8.57,0,0,1,224,215a6.7,6.7,0,0,1,.23,3.84,8.34,8.34,0,0,1-1.09,2.36,6.18,6.18,0,0,0-1.06,2.67,6.1,6.1,0,0,0,.71,3.45,6.34,6.34,0,0,0,1.71,2,10,10,0,0,0,1.79,1c.6.27,1.21.56,1.84.88s1,.53,1.44.83Z" style="fill-rule:evenodd;opacity:0.30000000000000004"></path><path d="M231.55,232.21c-.24.12-.47.25-.7.39a2.56,2.56,0,0,1-2.62,0c-.23-.13-.45-.26-.69-.38-.56-.29-1.18-.58-1.79-.86a10.53,10.53,0,0,1-2-1.11,7.4,7.4,0,0,1-2-2.38,4.83,4.83,0,0,1-.27-.56,7.33,7.33,0,0,1-.57-3.52,7.41,7.41,0,0,1,1.22-3.15,7.58,7.58,0,0,0,1-2,5.49,5.49,0,0,0-.1-2.9,5.41,5.41,0,0,0-.44-1h0l-.21-.38.71-.69.34.11a7.12,7.12,0,0,0,4.33-.08,7.59,7.59,0,0,0,.83-.34,2.51,2.51,0,0,1,2.14,0,7.19,7.19,0,0,0,3.42.69,7.79,7.79,0,0,0,2-.41l.7.69a8.44,8.44,0,0,0-.65,1.4,5.62,5.62,0,0,0-.19,2.48,6.64,6.64,0,0,0,1.08,2.58,7.46,7.46,0,0,1,1.12,2.54,7.1,7.1,0,0,1-.26,3.39,7.4,7.4,0,0,1-1,2,8.08,8.08,0,0,1-2.88,2.43c-.81.41-1.67.73-2.48,1.15Z" style="fill-rule:evenodd;opacity:0.5"></path><path d="M229.54,219.53a4.32,4.32,0,1,1-4.32,4.32,4.32,4.32,0,0,1,4.32-4.32Z" style="fill:#452B01;fill-rule:evenodd"></path><path d="M229.54,219.53a4.32,4.32,0,1,1-4.32,4.32,4.32,4.32,0,0,1,4.32-4.32Z" style="fill-rule:evenodd;opacity:0.5"></path></g><g id="freepik--hammer-of-law--inject-78"><rect x="400.27" y="185.7" width="58.49" height="43.64" rx="4.38" style="fill:#452B01"></rect><path d="M408.21,201.59s-9.81,14.6-31.16,7.77c0,0,22.95,15.83,39.07-1.83Z" style="fill:#452B01;fill-rule:evenodd"></path><rect x="411.7" y="182.27" width="35.64" height="50.5" rx="0.38" transform="translate(637.04 -222.01) rotate(90)" style="fill:#fff;opacity:0.39;isolation:isolate"></rect><path d="M413.24,220.48h0a3.42,3.42,0,0,1-2.48-2.37l0-.15,15.16-15.16,2.52,2.52Z" style="fill:#452B01"></path><path d="M413.24,220.48h0a3.42,3.42,0,0,1-2.48-2.37l0-.15,15.16-15.16,2.52,2.52Z" style="opacity:0.5"></path><rect x="424.82" y="201.96" width="4.5" height="4.33" transform="translate(269.44 -242.21) rotate(45)" style="fill:#452B01"></rect><rect x="424.82" y="201.96" width="4.5" height="4.33" transform="translate(269.44 -242.21) rotate(45)" style="opacity:0.7000000000000001"></rect><rect x="423.09" y="197.76" width="13.54" height="7.15" transform="translate(268.27 -244.99) rotate(45)" style="fill:#452B01"></rect><rect x="423.09" y="197.76" width="13.54" height="7.15" transform="translate(268.27 -244.99) rotate(45)" style="opacity:0.30000000000000004"></rect><rect x="422.98" y="192.08" width="4.12" height="8.84" rx="1" transform="translate(263.44 -242.99) rotate(45)" style="fill:#452B01"></rect><rect x="432.63" y="201.74" width="4.12" height="8.84" rx="1" transform="translate(273.09 -246.99) rotate(45)" style="fill:#452B01"></rect><g style="opacity:0.5"><rect x="422.98" y="192.08" width="4.12" height="8.84" rx="1" transform="translate(263.44 -242.99) rotate(45)"></rect><rect x="432.63" y="201.74" width="4.12" height="8.84" rx="1" transform="translate(273.09 -246.99) rotate(45)"></rect></g><path d="M430.18,213.12H443a1.24,1.24,0,0,1,1.24,1.24V218a0,0,0,0,1,0,0H428.94a0,0,0,0,1,0,0v-3.66A1.24,1.24,0,0,1,430.18,213.12Z" style="fill:#452B01"></path><path d="M430.18,213.12H443a1.24,1.24,0,0,1,1.24,1.24V218a0,0,0,0,1,0,0H428.94a0,0,0,0,1,0,0v-3.66A1.24,1.24,0,0,1,430.18,213.12Z" style="opacity:0.30000000000000004"></path><path d="M444.54,217.8H428.62a1.32,1.32,0,0,0-1.32,1.31h0a1.32,1.32,0,0,0,1.32,1.32h15.92a1.32,1.32,0,0,0,1.32-1.32h0A1.32,1.32,0,0,0,444.54,217.8Z" style="fill:#452B01"></path><path d="M444.54,217.8H428.62a1.32,1.32,0,0,0-1.32,1.31h0a1.32,1.32,0,0,0,1.32,1.32h15.92a1.32,1.32,0,0,0,1.32-1.32h0A1.32,1.32,0,0,0,444.54,217.8Z" style="opacity:0.5"></path></g><g id="freepik--legal-balance--inject-78"><rect x="163.67" y="88.65" width="79.05" height="58.97" rx="5.92" style="fill:#452B01"></rect><path d="M230.79,136.52S229.15,154,250,162.25c0,0-27.79-2.26-29.1-26.13Z" style="fill:#452B01;fill-rule:evenodd"></path><rect x="177.71" y="82.62" width="50.97" height="71.05" rx="1.92" transform="translate(321.34 -85.06) rotate(90)" style="fill:#fff;opacity:0.39;isolation:isolate"></rect><path d="M194.7,119.28a6.08,6.08,0,0,1-11.35,0Z" style="fill:#452B01"></path><path d="M194.7,119.28a6.08,6.08,0,0,1-11.35,0Z" style="opacity:0.5"></path><path d="M194.7,118.48a.21.21,0,0,1-.18-.11L189,107.88l-5.5,10.49a.21.21,0,0,1-.28.09.21.21,0,0,1-.09-.28l5.68-10.83a.22.22,0,0,1,.37,0l5.68,10.83a.21.21,0,0,1-.09.28Z" style="fill:#452B01"></path><g style="opacity:0.7000000000000001"><path d="M194.7,118.48a.21.21,0,0,1-.18-.11L189,107.88l-5.5,10.49a.21.21,0,0,1-.28.09.21.21,0,0,1-.09-.28l5.68-10.83a.22.22,0,0,1,.37,0l5.68,10.83a.21.21,0,0,1-.09.28Z"></path></g><path d="M189,119a.2.2,0,0,1-.21-.2V107.44a.2.2,0,0,1,.21-.2.2.2,0,0,1,.2.2v11.34A.2.2,0,0,1,189,119Z" style="fill:#452B01"></path><g style="opacity:0.7000000000000001"><path d="M189,119a.2.2,0,0,1-.21-.2V107.44a.2.2,0,0,1,.21-.2.2.2,0,0,1,.2.2v11.34A.2.2,0,0,1,189,119Z"></path></g><rect x="182.54" y="118.27" width="12.98" height="1.01" style="fill:#452B01"></rect><rect x="182.54" y="118.27" width="12.98" height="1.01" style="opacity:0.30000000000000004"></rect><path d="M222.8,119.28a6.09,6.09,0,0,1-11.36,0Z" style="fill:#452B01"></path><path d="M222.8,119.28a6.09,6.09,0,0,1-11.36,0Z" style="opacity:0.5"></path><path d="M222.8,118.48a.19.19,0,0,1-.18-.11l-5.5-10.49-5.5,10.49a.2.2,0,1,1-.36-.19l5.68-10.83a.21.21,0,0,1,.36,0L223,118.18a.21.21,0,0,1-.09.28Z" style="fill:#452B01"></path><g style="opacity:0.7000000000000001"><path d="M222.8,118.48a.19.19,0,0,1-.18-.11l-5.5-10.49-5.5,10.49a.2.2,0,1,1-.36-.19l5.68-10.83a.21.21,0,0,1,.36,0L223,118.18a.21.21,0,0,1-.09.28Z"></path></g><path d="M217.12,119a.21.21,0,0,1-.21-.2V107.44a.21.21,0,0,1,.21-.2.2.2,0,0,1,.2.2v11.34A.2.2,0,0,1,217.12,119Z" style="fill:#452B01"></path><g style="opacity:0.7000000000000001"><path d="M217.12,119a.21.21,0,0,1-.21-.2V107.44a.21.21,0,0,1,.21-.2.2.2,0,0,1,.2.2v11.34A.2.2,0,0,1,217.12,119Z"></path></g><rect x="210.63" y="118.27" width="12.98" height="1.01" style="fill:#452B01"></rect><rect x="210.63" y="118.27" width="12.98" height="1.01" style="opacity:0.30000000000000004"></rect><path d="M203,104v2.09c-2.12,0-4.52,1.2-6.43,2.26a7.51,7.51,0,0,1-4.08.9,11.15,11.15,0,0,1-4.72-1.91v-1.17a8.78,8.78,0,0,0,4.63,1.62,7.48,7.48,0,0,0,4.17-1.54A13.9,13.9,0,0,1,203,104Z" style="fill:#452B01"></path><path d="M203,104v2.09c-2.12,0-4.52,1.2-6.43,2.26a7.51,7.51,0,0,1-4.08.9,11.15,11.15,0,0,1-4.72-1.91v-1.17a8.78,8.78,0,0,0,4.63,1.62,7.48,7.48,0,0,0,4.17-1.54A13.9,13.9,0,0,1,203,104Z" style="opacity:0.30000000000000004"></path><path d="M189,106.63a1.2,1.2,0,1,1-1.2-1.2A1.19,1.19,0,0,1,189,106.63Z" style="fill:#452B01"></path><path d="M189,106.63a1.2,1.2,0,1,1-1.2-1.2A1.19,1.19,0,0,1,189,106.63Z" style="opacity:0.5"></path><path d="M203,104v2.09c2.12,0,4.52,1.2,6.44,2.26a7.49,7.49,0,0,0,4.08.9,11.25,11.25,0,0,0,4.72-1.91v-1.17a8.84,8.84,0,0,1-4.64,1.62,7.45,7.45,0,0,1-4.16-1.54A14,14,0,0,0,203,104Z" style="fill:#452B01"></path><path d="M203,104v2.09c2.12,0,4.52,1.2,6.44,2.26a7.49,7.49,0,0,0,4.08.9,11.25,11.25,0,0,0,4.72-1.91v-1.17a8.84,8.84,0,0,1-4.64,1.62,7.45,7.45,0,0,1-4.16-1.54A14,14,0,0,0,203,104Z" style="opacity:0.30000000000000004"></path><path d="M217.12,106.63a1.19,1.19,0,1,0,1.19-1.2A1.19,1.19,0,0,0,217.12,106.63Z" style="fill:#452B01"></path><path d="M217.12,106.63a1.19,1.19,0,1,0,1.19-1.2A1.19,1.19,0,0,0,217.12,106.63Z" style="opacity:0.5"></path><rect x="201.5" y="100.36" width="3.03" height="31" style="fill:#452B01"></rect><rect x="201.5" y="100.36" width="3.03" height="31" style="opacity:0.7000000000000001"></rect><path d="M205.58,105.42a2.57,2.57,0,1,1-2.57-2.57A2.56,2.56,0,0,1,205.58,105.42Z" style="fill:#452B01"></path><path d="M205.58,105.42a2.57,2.57,0,1,1-2.57-2.57A2.56,2.56,0,0,1,205.58,105.42Z" style="opacity:0.5"></path><path d="M205,98.55a2,2,0,1,1-2-2A2,2,0,0,1,205,98.55Z" style="fill:#452B01"></path><path d="M205,98.55a2,2,0,1,1-2-2A2,2,0,0,1,205,98.55Z" style="opacity:0.5"></path><path d="M211.32,136H194.7v-3.63a1,1,0,0,1,1-1h14.62a1,1,0,0,1,1,1Z" style="fill:#452B01"></path><path d="M211.32,136H194.7v-3.63a1,1,0,0,1,1-1h14.62a1,1,0,0,1,1,1Z" style="opacity:0.30000000000000004"></path><path d="M216.37,139.43H189.66a1.72,1.72,0,0,1-1.72-1.72h0a1.72,1.72,0,0,1,1.72-1.72h26.71a1.72,1.72,0,0,1,1.72,1.72h0A1.72,1.72,0,0,1,216.37,139.43Z" style="fill:#452B01"></path><path d="M216.37,139.43H189.66a1.72,1.72,0,0,1-1.72-1.72h0a1.72,1.72,0,0,1,1.72-1.72h26.71a1.72,1.72,0,0,1,1.72,1.72h0A1.72,1.72,0,0,1,216.37,139.43Z" style="opacity:0.5"></path><rect x="194.7" y="132.55" width="16.62" height="1.13" style="fill:#452B01"></rect><rect x="194.7" y="132.55" width="16.62" height="1.13" style="opacity:0.5"></rect><path d="M205.29,100.51a.84.84,0,0,1-.83.84h-2.89a.85.85,0,0,1-.84-.84h0a.84.84,0,0,1,.84-.83h2.89a.83.83,0,0,1,.83.83Z" style="fill:#452B01"></path><path d="M205.29,100.51a.84.84,0,0,1-.83.84h-2.89a.85.85,0,0,1-.84-.84h0a.84.84,0,0,1,.84-.83h2.89a.83.83,0,0,1,.83.83Z" style="opacity:0.30000000000000004"></path></g><g id="freepik--Paper--inject-78"><rect x="376.76" y="88.65" width="68.11" height="50.81" rx="5.1" style="fill:#452B01"></rect><path d="M390.38,132s1.65,17.52-19.21,25.73c0,0,27.79-2.26,29.1-26.13Z" style="fill:#452B01;fill-rule:evenodd"></path><rect x="389.41" y="84" width="42.81" height="60.11" rx="1.1" transform="translate(524.87 -296.75) rotate(90)" style="fill:#fff;opacity:0.39;isolation:isolate"></rect><path d="M422.4,97h0a2.49,2.49,0,0,1,2.49,2.5v1.2h-6.81Z" style="fill:#452B01"></path><path d="M422.4,97h0a2.49,2.49,0,0,1,2.49,2.5v1.2h-6.81Z" style="opacity:0.7000000000000001"></path><path d="M423.49,130c4.91-9.74-4.92-24.07-1.09-33H401.53a3.82,3.82,0,0,0-3.8,3.5c-.81,9.07,6.62,21.55,1.58,30.12h23.07A1.23,1.23,0,0,0,423.49,130Z" style="fill:#452B01"></path><path d="M423.49,130c4.91-9.74-4.92-24.07-1.09-33H401.53a3.82,3.82,0,0,0-3.8,3.5c-.81,9.07,6.62,21.55,1.58,30.12h23.07A1.23,1.23,0,0,0,423.49,130Z" style="opacity:0.30000000000000004"></path><path d="M399.31,130.63h0a2.19,2.19,0,0,1-2.19-2.19v-.82h23.19v.82a2.19,2.19,0,0,0,2.19,2.19H399.31Z" style="fill:#452B01"></path><path d="M399.31,130.63h0a2.19,2.19,0,0,1-2.19-2.19v-.82h23.19v.82a2.19,2.19,0,0,0,2.19,2.19H399.31Z" style="opacity:0.5"></path><rect x="400.94" y="101.65" width="16.43" height="1.37" style="opacity:0.30000000000000004"></rect><rect x="401.71" y="106.49" width="16.43" height="1.37" style="opacity:0.30000000000000004"></rect><rect x="402.6" y="110.15" width="16.43" height="1.37" style="opacity:0.30000000000000004"></rect><rect x="403.48" y="113.82" width="16.43" height="1.37" style="opacity:0.30000000000000004"></rect><circle cx="418.08" cy="122.22" r="2.53" style="opacity:0.30000000000000004"></circle></g></svg>