<svg xmlns="http://www.w3.org/2000/svg" viewBox="0 0 750 500"><g id="freepik--background-complete--inject-53"><rect x="81.71" y="52.18" width="78.54" height="103.91" transform="translate(225.12 -16.84) rotate(90)" style="fill:#ebebeb"></rect><rect x="90.22" y="60.42" width="61.52" height="87.42" transform="translate(225.12 -16.84) rotate(90)" style="fill:#fff"></rect><rect x="100.78" y="75.43" width="40.41" height="57.42" transform="translate(225.12 -16.84) rotate(90)" style="fill:#ebebeb"></rect><rect x="172.93" y="64.87" width="2.36" height="78.54" style="fill:#dbdbdb"></rect><rect x="77.27" y="73.38" width="2.36" height="61.52" style="fill:#dbdbdb"></rect><path d="M151.78,119.77a7.18,7.18,0,1,1-7.18-7.18A7.17,7.17,0,0,1,151.78,119.77Z" style="fill:#c7c7c7"></path><rect x="587.39" y="145.75" width="78.54" height="103.91" transform="translate(824.37 -428.95) rotate(90)" style="fill:#ebebeb"></rect><rect x="595.9" y="154" width="61.52" height="87.42" transform="translate(824.37 -428.95) rotate(90)" style="fill:#fff"></rect><rect x="678.61" y="158.44" width="2.36" height="78.54" style="fill:#dbdbdb"></rect><rect x="582.95" y="166.95" width="2.36" height="61.52" style="fill:#dbdbdb"></rect><rect x="626.08" y="147.91" width="1.15" height="57.42" transform="translate(803.28 -450.03) rotate(90)" style="fill:#ebebeb"></rect><rect x="626.08" y="173.18" width="1.15" height="57.42" transform="translate(828.55 -424.77) rotate(90)" style="fill:#ebebeb"></rect><rect x="626.08" y="162.88" width="1.15" height="34.77" transform="translate(806.92 -446.4) rotate(90)" style="fill:#ebebeb"></rect><rect x="626.08" y="194.43" width="1.15" height="34.77" transform="translate(838.46 -414.85) rotate(90)" style="fill:#ebebeb"></rect><rect x="626.08" y="201.08" width="1.15" height="27.8" transform="translate(841.64 -411.67) rotate(90)" style="fill:#ebebeb"></rect><path d="M658.73,213.05a6.33,6.33,0,1,1-6.33-6.33A6.32,6.32,0,0,1,658.73,213.05Z" style="fill:#c7c7c7"></path><rect x="599.89" y="188.16" width="53.53" height="6.59" style="fill:#ebebeb"></rect><circle cx="380" cy="149.39" r="90.12" transform="translate(5.66 312.46) rotate(-45)" style="fill:#ebebeb"></circle><path d="M380,224.15a74.76,74.76,0,1,1,74.76-74.76A74.84,74.84,0,0,1,380,224.15Zm0-147.52a72.76,72.76,0,1,0,72.76,72.76A72.84,72.84,0,0,0,380,76.63Z" style="fill:#fff"></path><rect x="342.93" y="176.18" width="10.21" height="1.28" style="fill:#fff"></rect><rect x="342.93" y="176.18" width="10.21" height="1.28" style="opacity:0.1"></rect><rect x="343.7" y="131.44" width="8.67" height="44.74" style="fill:#fff"></rect><rect x="343.7" y="131.44" width="8.67" height="44.74" style="fill:#fff"></rect><path d="M344.6,175.15h0c-.08,0-.14-.09-.14-.2V133.64c0-.11.06-.2.14-.2h0c.08,0,.14.09.14.2V175C344.74,175.06,344.68,175.15,344.6,175.15Z" style="opacity:0.1"></path><path d="M345.37,175.15h0c-.08,0-.15-.09-.15-.2V133.64c0-.11.07-.2.15-.2h0c.07,0,.14.09.14.2V175C345.51,175.06,345.44,175.15,345.37,175.15Z" style="opacity:0.1"></path><path d="M346.13,175.15h0c-.08,0-.14-.09-.14-.2V133.64c0-.11.06-.2.14-.2h0c.08,0,.14.09.14.2V175C346.27,175.06,346.21,175.15,346.13,175.15Z" style="opacity:0.1"></path><path d="M346.89,175.15h0c-.08,0-.14-.09-.14-.2V133.64c0-.11.06-.2.14-.2h0c.08,0,.15.09.15.2V175C347,175.06,347,175.15,346.89,175.15Z" style="opacity:0.1"></path><path d="M347.66,175.15h0c-.08,0-.15-.09-.15-.2V133.64c0-.11.07-.2.15-.2h0c.08,0,.14.09.14.2V175C347.8,175.06,347.74,175.15,347.66,175.15Z" style="opacity:0.1"></path><path d="M348.42,175.15h0c-.08,0-.14-.09-.14-.2V133.64c0-.11.06-.2.14-.2h0c.08,0,.14.09.14.2V175C348.56,175.06,348.5,175.15,348.42,175.15Z" style="opacity:0.1"></path><path d="M349.18,175.15h0c-.07,0-.14-.09-.14-.2V133.64c0-.11.07-.2.14-.2h0c.08,0,.15.09.15.2V175C349.33,175.06,349.26,175.15,349.18,175.15Z" style="opacity:0.1"></path><path d="M350,175.15h0c-.08,0-.14-.09-.14-.2V133.64c0-.11.06-.2.14-.2h0c.08,0,.14.09.14.2V175C350.09,175.06,350,175.15,350,175.15Z" style="opacity:0.1"></path><path d="M350.71,175.15h0c-.08,0-.14-.09-.14-.2V133.64c0-.11.06-.2.14-.2h0c.08,0,.15.09.15.2V175C350.86,175.06,350.79,175.15,350.71,175.15Z" style="opacity:0.1"></path><path d="M351.48,175.15h0c-.08,0-.15-.09-.15-.2V133.64c0-.11.07-.2.15-.2h0c.08,0,.14.09.14.2V175C351.62,175.06,351.56,175.15,351.48,175.15Z" style="opacity:0.1"></path><polygon points="352.38 131.44 352.38 132.97 343.7 132.63 343.7 131.44 352.38 131.44" style="opacity:0.1"></polygon><rect x="342.32" y="177.46" width="11.45" height="2.31" style="fill:#fff"></rect><path d="M354.71,132.11a1.72,1.72,0,0,1-1.76,1.8c-1.63,0-1.72-1.79-1.72-1.79h-6.38s-.09,1.79-1.73,1.79a1.71,1.71,0,0,1-1.75-1.8,2,2,0,0,1,2.23-2.05h8.88A2,2,0,0,1,354.71,132.11Z" style="fill:#fff"></path><path d="M344.85,132.12a1.12,1.12,0,1,0-2.11.55.51.51,0,0,0,.93-.1c.13-.52-.36-.79-.18-1.1s.65-.26.94-.05A1.38,1.38,0,0,1,344.85,132.12Z" style="opacity:0.1"></path><path d="M351.23,132.12a1.12,1.12,0,1,1,2.11.55.51.51,0,0,1-.94-.1c-.13-.52.37-.79.19-1.1s-.66-.26-.94-.05A1.38,1.38,0,0,0,351.23,132.12Z" style="opacity:0.1"></path><rect x="364.24" y="176.18" width="10.21" height="1.28" style="fill:#fff"></rect><rect x="364.24" y="176.18" width="10.21" height="1.28" style="opacity:0.1"></rect><rect x="365.01" y="131.44" width="8.67" height="44.74" style="fill:#fff"></rect><rect x="365.01" y="131.44" width="8.67" height="44.74" style="fill:#fff"></rect><path d="M365.91,175.15h0c-.08,0-.14-.09-.14-.2V133.64c0-.11.06-.2.14-.2h0c.08,0,.14.09.14.2V175C366.05,175.06,366,175.15,365.91,175.15Z" style="opacity:0.1"></path><path d="M366.67,175.15h0c-.08,0-.14-.09-.14-.2V133.64c0-.11.06-.2.14-.2h0c.08,0,.15.09.15.2V175C366.82,175.06,366.75,175.15,366.67,175.15Z" style="opacity:0.1"></path><path d="M367.44,175.15h0c-.08,0-.15-.09-.15-.2V133.64c0-.11.07-.2.15-.2h0c.08,0,.14.09.14.2V175C367.58,175.06,367.52,175.15,367.44,175.15Z" style="opacity:0.1"></path><path d="M368.2,175.15h0c-.08,0-.14-.09-.14-.2V133.64c0-.11.06-.2.14-.2h0c.08,0,.14.09.14.2V175C368.34,175.06,368.28,175.15,368.2,175.15Z" style="opacity:0.1"></path><path d="M369,175.15h0c-.08,0-.14-.09-.14-.2V133.64c0-.11.06-.2.14-.2h0c.08,0,.15.09.15.2V175C369.11,175.06,369,175.15,369,175.15Z" style="opacity:0.1"></path><path d="M369.73,175.15h0c-.08,0-.15-.09-.15-.2V133.64c0-.11.07-.2.15-.2h0c.08,0,.14.09.14.2V175C369.87,175.06,369.81,175.15,369.73,175.15Z" style="opacity:0.1"></path><path d="M370.49,175.15h0c-.08,0-.14-.09-.14-.2V133.64c0-.11.06-.2.14-.2h0c.08,0,.14.09.14.2V175C370.63,175.06,370.57,175.15,370.49,175.15Z" style="opacity:0.1"></path><path d="M371.26,175.15h0c-.08,0-.15-.09-.15-.2V133.64c0-.11.07-.2.15-.2h0c.07,0,.14.09.14.2V175C371.4,175.06,371.33,175.15,371.26,175.15Z" style="opacity:0.1"></path><path d="M372,175.15h0c-.08,0-.14-.09-.14-.2V133.64c0-.11.06-.2.14-.2h0c.08,0,.14.09.14.2V175C372.16,175.06,372.1,175.15,372,175.15Z" style="opacity:0.1"></path><path d="M372.78,175.15h0c-.08,0-.14-.09-.14-.2V133.64c0-.11.06-.2.14-.2h0c.08,0,.15.09.15.2V175C372.93,175.06,372.86,175.15,372.78,175.15Z" style="opacity:0.1"></path><polygon points="373.68 131.44 373.68 132.97 365.01 132.63 365.01 131.44 373.68 131.44" style="opacity:0.1"></polygon><rect x="363.62" y="177.46" width="11.45" height="2.31" style="fill:#fff"></rect><path d="M376,132.11a1.72,1.72,0,0,1-1.76,1.8c-1.64,0-1.73-1.79-1.73-1.79h-6.37s-.09,1.79-1.73,1.79a1.72,1.72,0,0,1-1.76-1.8,2,2,0,0,1,2.24-2.05h8.88A2,2,0,0,1,376,132.11Z" style="fill:#fff"></path><path d="M366.16,132.12a1.12,1.12,0,1,0-2.11.55.51.51,0,0,0,.93-.1c.13-.52-.37-.79-.19-1.1s.66-.26.95-.05A1.38,1.38,0,0,1,366.16,132.12Z" style="opacity:0.1"></path><path d="M372.53,132.12a1.12,1.12,0,1,1,2.11.55.51.51,0,0,1-.93-.1c-.13-.52.37-.79.19-1.1s-.66-.26-.95-.05A1.38,1.38,0,0,0,372.53,132.12Z" style="opacity:0.1"></path><rect x="385.55" y="176.18" width="10.21" height="1.28" style="fill:#fff"></rect><rect x="385.55" y="176.18" width="10.21" height="1.28" style="opacity:0.1"></rect><rect x="386.32" y="131.44" width="8.67" height="44.74" style="fill:#fff"></rect><rect x="386.32" y="131.44" width="8.67" height="44.74" style="fill:#fff"></rect><path d="M387.22,175.15h0c-.08,0-.15-.09-.15-.2V133.64c0-.11.07-.2.15-.2h0c.07,0,.14.09.14.2V175C387.36,175.06,387.29,175.15,387.22,175.15Z" style="opacity:0.1"></path><path d="M388,175.15h0c-.08,0-.14-.09-.14-.2V133.64c0-.11.06-.2.14-.2h0c.08,0,.14.09.14.2V175C388.12,175.06,388.06,175.15,388,175.15Z" style="opacity:0.1"></path><path d="M388.74,175.15h0c-.08,0-.14-.09-.14-.2V133.64c0-.11.06-.2.14-.2h0c.08,0,.15.09.15.2V175C388.89,175.06,388.82,175.15,388.74,175.15Z" style="opacity:0.1"></path><path d="M389.51,175.15h0c-.08,0-.15-.09-.15-.2V133.64c0-.11.07-.2.15-.2h0c.08,0,.14.09.14.2V175C389.65,175.06,389.59,175.15,389.51,175.15Z" style="opacity:0.1"></path><path d="M390.27,175.15h0c-.08,0-.14-.09-.14-.2V133.64c0-.11.06-.2.14-.2h0c.08,0,.14.09.14.2V175C390.41,175.06,390.35,175.15,390.27,175.15Z" style="opacity:0.1"></path><path d="M391,175.15h0c-.07,0-.14-.09-.14-.2V133.64c0-.11.07-.2.14-.2h0c.08,0,.15.09.15.2V175C391.18,175.06,391.11,175.15,391,175.15Z" style="opacity:0.1"></path><path d="M391.8,175.15h0c-.08,0-.14-.09-.14-.2V133.64c0-.11.06-.2.14-.2h0c.08,0,.14.09.14.2V175C391.94,175.06,391.88,175.15,391.8,175.15Z" style="opacity:0.1"></path><path d="M392.56,175.15h0c-.08,0-.14-.09-.14-.2V133.64c0-.11.06-.2.14-.2h0c.08,0,.15.09.15.2V175C392.71,175.06,392.64,175.15,392.56,175.15Z" style="opacity:0.1"></path><path d="M393.33,175.15h0c-.08,0-.15-.09-.15-.2V133.64c0-.11.07-.2.15-.2h0c.08,0,.14.09.14.2V175C393.47,175.06,393.41,175.15,393.33,175.15Z" style="opacity:0.1"></path><path d="M394.09,175.15h0c-.08,0-.14-.09-.14-.2V133.64c0-.11.06-.2.14-.2h0c.08,0,.14.09.14.2V175C394.23,175.06,394.17,175.15,394.09,175.15Z" style="opacity:0.1"></path><polygon points="394.99 131.44 394.99 132.97 386.32 132.63 386.32 131.44 394.99 131.44" style="opacity:0.1"></polygon><rect x="384.93" y="177.46" width="11.45" height="2.31" style="fill:#fff"></rect><path d="M397.33,132.11a1.72,1.72,0,0,1-1.76,1.8c-1.64,0-1.73-1.79-1.73-1.79h-6.38s-.08,1.79-1.72,1.79a1.72,1.72,0,0,1-1.76-1.8,2,2,0,0,1,2.23-2.05h8.88A2,2,0,0,1,397.33,132.11Z" style="fill:#fff"></path><path d="M387.47,132.12a1.12,1.12,0,1,0-2.11.55.51.51,0,0,0,.93-.1c.13-.52-.37-.79-.19-1.1s.66-.26.95-.05A1.46,1.46,0,0,1,387.47,132.12Z" style="opacity:0.1"></path><path d="M393.84,132.12a1.12,1.12,0,1,1,2.11.55.51.51,0,0,1-.93-.1c-.13-.52.36-.79.19-1.1s-.66-.26-.95-.05A1.38,1.38,0,0,0,393.84,132.12Z" style="opacity:0.1"></path><rect x="406.85" y="176.18" width="10.21" height="1.28" style="fill:#fff"></rect><rect x="406.85" y="176.18" width="10.21" height="1.28" style="opacity:0.1"></rect><rect x="407.62" y="131.44" width="8.67" height="44.74" style="fill:#fff"></rect><rect x="407.62" y="131.44" width="8.67" height="44.74" style="fill:#fff"></rect><path d="M408.52,175.15h0c-.08,0-.14-.09-.14-.2V133.64c0-.11.06-.2.14-.2h0c.08,0,.15.09.15.2V175C408.67,175.06,408.6,175.15,408.52,175.15Z" style="opacity:0.1"></path><path d="M409.29,175.15h0c-.08,0-.15-.09-.15-.2V133.64c0-.11.07-.2.15-.2h0c.08,0,.14.09.14.2V175C409.43,175.06,409.37,175.15,409.29,175.15Z" style="opacity:0.1"></path><path d="M410.05,175.15h0c-.08,0-.14-.09-.14-.2V133.64c0-.11.06-.2.14-.2h0c.08,0,.14.09.14.2V175C410.19,175.06,410.13,175.15,410.05,175.15Z" style="opacity:0.1"></path><path d="M410.81,175.15h0c-.07,0-.14-.09-.14-.2V133.64c0-.11.07-.2.14-.2h0c.08,0,.15.09.15.2V175C411,175.06,410.89,175.15,410.81,175.15Z" style="opacity:0.1"></path><path d="M411.58,175.15h0c-.08,0-.14-.09-.14-.2V133.64c0-.11.06-.2.14-.2h0c.08,0,.14.09.14.2V175C411.72,175.06,411.66,175.15,411.58,175.15Z" style="opacity:0.1"></path><path d="M412.34,175.15h0c-.08,0-.14-.09-.14-.2V133.64c0-.11.06-.2.14-.2h0c.08,0,.15.09.15.2V175C412.49,175.06,412.42,175.15,412.34,175.15Z" style="opacity:0.1"></path><path d="M413.11,175.15h0c-.08,0-.15-.09-.15-.2V133.64c0-.11.07-.2.15-.2h0c.08,0,.14.09.14.2V175C413.25,175.06,413.19,175.15,413.11,175.15Z" style="opacity:0.1"></path><path d="M413.87,175.15h0c-.08,0-.14-.09-.14-.2V133.64c0-.11.06-.2.14-.2h0c.08,0,.14.09.14.2V175C414,175.06,414,175.15,413.87,175.15Z" style="opacity:0.1"></path><path d="M414.63,175.15h0c-.08,0-.14-.09-.14-.2V133.64c0-.11.06-.2.14-.2h0c.08,0,.15.09.15.2V175C414.78,175.06,414.71,175.15,414.63,175.15Z" style="opacity:0.1"></path><path d="M415.4,175.15h0c-.08,0-.15-.09-.15-.2V133.64c0-.11.07-.2.15-.2h0c.08,0,.14.09.14.2V175C415.54,175.06,415.48,175.15,415.4,175.15Z" style="opacity:0.1"></path><polygon points="416.3 131.44 416.3 132.97 407.62 132.63 407.62 131.44 416.3 131.44" style="opacity:0.1"></polygon><rect x="406.24" y="177.46" width="11.45" height="2.31" style="fill:#fff"></rect><path d="M418.63,132.11a1.71,1.71,0,0,1-1.75,1.8c-1.64,0-1.73-1.79-1.73-1.79h-6.38s-.09,1.79-1.72,1.79a1.72,1.72,0,0,1-1.76-1.8,2,2,0,0,1,2.23-2.05h8.88A2,2,0,0,1,418.63,132.11Z" style="fill:#fff"></path><path d="M408.77,132.12a1.12,1.12,0,1,0-2.11.55.51.51,0,0,0,.94-.1c.12-.52-.37-.79-.19-1.1s.66-.26.94-.05A1.38,1.38,0,0,1,408.77,132.12Z" style="opacity:0.1"></path><path d="M415.15,132.12a1.12,1.12,0,1,1,2.11.55.51.51,0,0,1-.94-.1c-.12-.52.37-.79.19-1.1s-.65-.26-.94-.05A1.38,1.38,0,0,0,415.15,132.12Z" style="opacity:0.1"></path><rect x="338.86" y="179.76" width="82.28" height="1.9" style="fill:#fff"></rect><rect x="336.59" y="181.66" width="86.81" height="1.9" style="fill:#fff"></rect><rect x="334.32" y="183.55" width="91.35" height="1.9" style="fill:#fff"></rect><rect x="332.05" y="185.45" width="95.89" height="1.9" style="fill:#fff"></rect><rect x="329.78" y="187.34" width="100.43" height="1.9" style="fill:#fff"></rect><polygon points="424.77 124.46 335.23 124.46 380 96.32 424.77 124.46" style="fill:#fff"></polygon><polygon points="411.47 121.16 348.53 121.16 380 101.38 411.47 121.16" style="fill:#ebebeb;opacity:0.5"></polygon><polygon points="411.46 121.16 409.57 121.16 380 102.58 350.43 121.16 348.54 121.16 380 101.39 411.46 121.16" style="fill:#dbdbdb;opacity:0.5"></polygon><rect x="337.38" y="124.46" width="85.23" height="5.6" style="fill:#fff"></rect><polygon points="422.62 125.17 337.38 125.88 337.38 124.46 422.62 124.46 422.62 125.17" style="fill:#ebebeb;opacity:0.5"></polygon><rect x="93.17" y="231.08" width="68.99" height="216.98" style="fill:#ebebeb"></rect><rect x="93.17" y="231.07" width="69" height="216.99" style="fill:#ebebeb"></rect><path d="M100.32,442h0a1.14,1.14,0,0,1-1.14-1.14v-197a1.14,1.14,0,0,1,1.14-1.14h0a1.14,1.14,0,0,1,1.14,1.14v197A1.14,1.14,0,0,1,100.32,442Z" style="opacity:0.1"></path><path d="M106.4,442h0a1.14,1.14,0,0,1-1.14-1.14v-197a1.14,1.14,0,0,1,1.14-1.14h0a1.14,1.14,0,0,1,1.14,1.14v197A1.14,1.14,0,0,1,106.4,442Z" style="opacity:0.1"></path><path d="M112.47,442h0a1.14,1.14,0,0,1-1.14-1.14v-197a1.14,1.14,0,0,1,1.14-1.14h0a1.14,1.14,0,0,1,1.14,1.14v197A1.14,1.14,0,0,1,112.47,442Z" style="opacity:0.1"></path><path d="M118.55,442h0a1.14,1.14,0,0,1-1.14-1.14v-197a1.14,1.14,0,0,1,1.14-1.14h0a1.14,1.14,0,0,1,1.14,1.14v197A1.14,1.14,0,0,1,118.55,442Z" style="opacity:0.1"></path><path d="M124.63,442h0a1.14,1.14,0,0,1-1.14-1.14v-197a1.14,1.14,0,0,1,1.14-1.14h0a1.14,1.14,0,0,1,1.14,1.14v197A1.14,1.14,0,0,1,124.63,442Z" style="opacity:0.1"></path><path d="M130.7,442h0a1.14,1.14,0,0,1-1.13-1.14v-197a1.14,1.14,0,0,1,1.13-1.14h0a1.14,1.14,0,0,1,1.14,1.14v197A1.14,1.14,0,0,1,130.7,442Z" style="opacity:0.1"></path><path d="M136.78,442h0a1.14,1.14,0,0,1-1.14-1.14v-197a1.14,1.14,0,0,1,1.14-1.14h0a1.14,1.14,0,0,1,1.14,1.14v197A1.14,1.14,0,0,1,136.78,442Z" style="opacity:0.1"></path><path d="M142.86,442h0a1.14,1.14,0,0,1-1.14-1.14v-197a1.14,1.14,0,0,1,1.14-1.14h0a1.14,1.14,0,0,1,1.14,1.14v197A1.14,1.14,0,0,1,142.86,442Z" style="opacity:0.1"></path><path d="M148.94,442h0a1.14,1.14,0,0,1-1.14-1.14v-197a1.14,1.14,0,0,1,1.14-1.14h0a1.14,1.14,0,0,1,1.14,1.14v197A1.14,1.14,0,0,1,148.94,442Z" style="opacity:0.1"></path><path d="M155,442h0a1.14,1.14,0,0,1-1.14-1.14v-197a1.14,1.14,0,0,1,1.14-1.14h0a1.14,1.14,0,0,1,1.14,1.14v197A1.14,1.14,0,0,1,155,442Z" style="opacity:0.1"></path><polygon points="162.16 231.07 162.16 240.06 93.17 238.03 93.17 231.07 162.16 231.07" style="opacity:0.1"></polygon><path d="M180.77,232c0,7.23-5.19,13.53-14,13.53-13,0-13.75-13.46-13.75-13.46H102.3s-.71,13.46-13.74,13.46c-8.82,0-14-6.3-14-13.53,0-6.38,4.54-15.41,17.77-15.41H163C176.24,216.61,180.77,225.64,180.77,232Z" style="fill:#ebebeb"></path><path d="M102.3,232.08c-.47-6.41-6.5-8.77-10.58-8-5.88,1.16-9.26,7.88-6.19,12.11,2.35,3.24,6.68,2.12,7.42-.75,1-3.94-2.93-5.92-1.5-8.23s5.23-2,7.52-.39C101.43,228.57,102.3,232.08,102.3,232.08Z" style="opacity:0.1"></path><path d="M153,232.08c.47-6.41,6.5-8.77,10.58-8,5.89,1.16,9.27,7.88,6.19,12.11-2.34,3.24-6.67,2.12-7.41-.75-1-3.94,2.92-5.92,1.49-8.23s-5.23-2-7.52-.39C153.91,228.57,153,232.08,153,232.08Z" style="opacity:0.1"></path></g><g id="freepik--character-3--inject-53"><path d="M533.91,448.8c0-.24-.09-.48-.15-.73h0Z" style="fill:#fff"></path><path d="M468.41,295.16h0c0,.07.14.51.33,1.25,0,.15.08.3.12.5,0,0,0,.09,0,.14s.08.28.12.44a2.36,2.36,0,0,1,.09.36c0,.12.06.25.1.38s.15.54.22.82.16.62.24.95a.14.14,0,0,0,0,.09l.26,1c.09.38.2.79.31,1.21.22.84.46,1.74.72,2.71a.2.2,0,0,0,0,.07c.13.47.25.94.38,1.44.53,2.05,1.14,4.36,1.79,6.9,0,.1.06.21.1.32.09.37.18.74.28,1.11.26,1,.53,2.07.83,3.16a.29.29,0,0,0,0,.09h0c.15.59.3,1.2.47,1.81v0h0c.06.27.14.54.21.83s.22.84.33,1.26c.66,2.49,1.34,5.14,2.06,7.91.21.78.41,1.59.62,2.39s.38,1.44.57,2.18a.35.35,0,0,1,0,.12l.3,1.14h0c.11.43.23.86.34,1.3.17.62.33,1.25.49,1.89s.37,1.42.56,2.14c.15.56.29,1.14.44,1.72.08.28.16.55.22.85,2.19,8.41,4.56,17.6,7.08,27.27,6.24,24.09,13.25,51.19,19.91,77.08h94.39c-7.79-26.55-16.18-54.24-23.65-78.62-3.9-12.8-7.57-24.69-10.78-35,0,0,0-.05,0-.06-.52-1.66-1-3.3-1.51-4.87-6.46-20.87-10.7-34.33-10.7-34.33Z" style="fill:#37474f"></path><path d="M468.4,295.17s.15.59.46,1.75c.07.27.15.59.25.94,0,.12.06.25.1.38.13.52.29,1.12.46,1.77a.14.14,0,0,0,0,.09l.26,1c.09.38.2.79.31,1.21.22.84.46,1.74.72,2.71a.2.2,0,0,0,0,.07c.13.47.25.94.38,1.44.53,2.05,1.14,4.36,1.79,6.9.13.47.25.94.38,1.43.26,1,.53,2.07.83,3.16a.29.29,0,0,0,0,.09h0c.15.59.3,1.2.47,1.81v0c.06.27.14.54.22.82h0c.1.41.21.84.32,1.26.66,2.49,1.34,5.14,2.06,7.91.21.78.41,1.59.62,2.39s.38,1.44.57,2.18a.35.35,0,0,1,0,.12h0c.1.38.2.76.29,1.14h0c.11.43.23.86.34,1.3.17.62.33,1.25.49,1.89s.37,1.42.56,2.14c7.72,29.65,18.07,69.54,27.68,106.92H523a.11.11,0,0,1,0-.07q.88-4.9,1.85-9.86l.84-4.33c3.62-18.44,7.69-37.08,11.63-55,.13-.6.25-1.19.38-1.79.09-.35.17-.71.24-1.07,3.13-14.26,6.15-28,8.77-40.9,0-.19.07-.36.12-.55s0-.19,0-.29q.68-3.3,1.3-6.5c.12-.62.25-1.23.36-1.84.18-1,.37-1.91.54-2.84.31-1.58.6-3.14.88-4.67q.15-.75.27-1.47c.42-2.29.82-4.54,1.19-6.73.1-.61.21-1.21.3-1.8q.79-4.74,1.42-9.17c.19-1.34.37-2.65.54-3.94v0a.08.08,0,0,0,0,0Z" style="opacity:0.1"></path><path d="M423,448.07h96.76l.28-3.19.52-5.69,1.15-12.63.48-5.3,3.41-37.64.1-1c3.74-1.73,9.17-4.27,12-5.59l1.83-.85s.07-.32.18-.9C540.51,371,544,352.44,547,335l.09-.53c0-.09,0-.19,0-.29.39-2.21.76-4.39,1.12-6.51.11-.61.2-1.22.31-1.82.17-1,.32-1.93.47-2.86l.07-.36v0c.24-1.45.47-2.88.7-4.26.09-.5.17-1,.24-1.48.45-2.67.87-5.2,1.26-7.51.08-.55.18-1.1.27-1.63.59-3.62,1.1-6.67,1.46-8.85.27-1.66.45-2.81.55-3.37a1.3,1.3,0,0,1,0-.28v0a.08.08,0,0,0,0,0H440.62s-3.8,16.51-7.12,33.44c-.48,2.4-.93,4.82-1.38,7.19-.2,1.09-.39,2.18-.59,3.24a197.2,197.2,0,0,0-2.86,20.22c-.31,5.23,1.41,20.88,1.41,20.88Z" style="fill:#37474f"></path><path d="M547.21,372.6c-12.6,4.07-24.81,9.95-36.49,16.13a.41.41,0,0,0,.33.75c12.28-5,24.8-9.75,36.79-15.41A.8.8,0,0,0,547.21,372.6Z" style="fill:#263238"></path><path d="M441.38,349.46c1.12-.37,20.59,1.21,29.91-6.82,8.54-7.34,12.75-29.57,12.92-29.59a.32.32,0,0,1,.33.15c.27.5-.29,18.08-10.52,30.29-7.22,8.61-30.22,7.32-32.69,6.72C440.9,350.11,441.06,349.57,441.38,349.46Z" style="fill:#263238"></path><path d="M566.79,339.23c-.93-.76-5.34-1.43-9.63-9.82A45.05,45.05,0,0,1,553.54,319c-.5-2.15-2.1-12.65-2.23-12.7s-.11,0-.13.13c-.15.73.84,10.34,1.28,12.8.82,4.62,1.92,8.87,3.7,12,4.13,7.3,9.71,9.17,10.66,8.68C567,339.83,566.92,339.33,566.79,339.23Z" style="fill:#263238"></path><path d="M573.34,334.32,429.28,338.5c-.32-.33,31.82-134.08,51.37-160,9.81-13,36.22-12.08,46.11,4.72C540.43,206.39,573.34,334.32,573.34,334.32Z" style="fill:#ebebeb"></path><polygon points="511.39 204.32 516.9 193.22 526.36 202.83 524.04 211.16 515.39 212.15 511.39 204.32" style="fill:#452B01"></polygon><polygon points="515.39 212.15 509.41 290.81 523.56 317.91 536.52 285.8 524.04 211.16 515.39 212.15" style="fill:#452B01"></polygon><path d="M583.59,349.47l-43.45,4.88L531.05,336l-6.57,20.76L425.22,349c-.32-.33,7.85-24.95,9-31.12,6.6-36.05,26.91-113.49,46.46-139.45a19.37,19.37,0,0,1,4.72-4.44c1.42,3.52,11.73,28.9,15.84,37.56,4.64,9.77,23.27,38.42,23.27,38.42s4.67-28.45,5.44-41.2c.25-4.13-3.33-21.7-4.6-27.8a25.68,25.68,0,0,1,1.44,2.18c13.67,23.21,38.68,100.94,46.58,137.47C574.26,324.91,583.59,349.47,583.59,349.47Z" style="fill:#263238"></path><path d="M531.05,336q-5.32-42.82-6.57-86,5.34,42.83,6.57,86Z" style="fill:#37474f"></path><path d="M520.63,265.9a3.66,3.66,0,0,1-7.31,0,3.66,3.66,0,1,1,7.31,0Zm0,0a2.66,2.66,0,1,0-5.31,0,2.66,2.66,0,1,0,5.31,0Z" style="fill:#37474f"></path><path d="M522.19,294.57a3.66,3.66,0,0,1-7.32,0,3.66,3.66,0,0,1,7.32,0Zm0,0a2.66,2.66,0,1,0-5.32,0,2.66,2.66,0,1,0,5.32,0Z" style="fill:#37474f"></path><path d="M523.75,323.24a3.66,3.66,0,0,1-7.32,0,3.66,3.66,0,0,1,7.32,0Zm0,0a2.66,2.66,0,1,0-5.32,0,2.66,2.66,0,1,0,5.32,0Z" style="fill:#37474f"></path><path d="M524.16,180.89c4.05,9.28,20.5,44.61,29,68.05,5.69,15.72,8.16,29,9.41,32.49,0,0-38.42-10.57-47-10.23-13.14.53-33.06,28.87-27.74,32.09,8.36,5.06,47.89,21.81,79.09,26.27,16.95,2.43,47.74-20.3,44.52-37.19-4.53-23.71-51.61-87.58-68.77-104.72C533.78,178.75,519.24,169.58,524.16,180.89Z" style="fill:#ffc4c0"></path><path d="M614,297.31c-.07,17.22-20.43,34.57-32.81,36.24-41.17,5.55-88.59-13.47-88.59-13.47L516.87,268s45,13.2,45.66,13.41v0c-.44-1.27-13-41.45-18.38-54.72-.29-.73-.62-1.48-.94-2.26-1.55-3.68-3.67-8.52-6-13.75l0,0-4-8.91v0c-5.86-12.95-12.86-28.08-12.86-28.08,7.44.9,14.91,4.48,27.42,16.54S614.09,268.9,614,297.31Z" style="fill:#263238"></path><path d="M510.12,306.21c1.64-3.5,3.31-7,5-10.47s3.26-6.83,4.91-10.23a115.74,115.74,0,0,0,4.87-10.71c0-.07-.07-.13-.11-.07a87,87,0,0,0-5.57,9.75c-1.78,3.43-3.51,6.89-5.22,10.36s-3.28,6.82-4.87,10.26A85.24,85.24,0,0,0,504.71,316c0,.15.16.29.26.14A103.2,103.2,0,0,0,510.12,306.21Z" style="fill:#37474f"></path><path d="M576.25,288l-13.7-6.53,0,0v0c-.44-1.27-13-41.45-18.38-54.72-.29-.73-.62-1.48-.94-2.26-1.55-3.68-3.67-8.52-6-13.75Z" style="fill:#37474f"></path><path d="M587.6,293.39a110.59,110.59,0,0,0-12.1-7.05c-2.07-1.06-4.17-2-6.33-2.88s-4.71-1.54-7-2.46c-.18-.07-.29.2-.12.27,2.13.86,4.18,2.09,6.24,3.11s4.31,2.09,6.48,3.09c4.27,2,8.47,4.08,12.72,6.1A.1.1,0,0,0,587.6,293.39Z" style="fill:#37474f"></path><path d="M492.58,320.08c23.88,8.15,49,13.25,74.3,13.71,3.57.18,7.3-.07,10.87,0a144,144,0,0,1-43.51-1,161.18,161.18,0,0,1-41.66-12.64Z" style="fill:#37474f"></path><path d="M581.47,289.28c-4.3-1.06-22.09-3.27-25.11-.25-18.34,18.32-37.86,8.82-41.89,11.16-31.2,18.07-69.06,35.49-84,35.67-22.59.25-31.64-18.68-27.94-36.61,7.32-35.43,47.44-96.11,69-114.52,11.43-9.75,18-3.61,13.31,12.33-2.75,9.35-7.57,23.25-12.49,36.89-4.36,12.15-15.9,43.2-16.1,43.93v0s0,.07,0,.09.06.09.24,0c1-.18,27.68-12.86,54.54-19.86,9.46-2.47,29.18-6,36.26-2.86,4.21,1.86,4.29,4.37,4.29,4.37s5.32-.09,8.89,2.83a7.88,7.88,0,0,1,2.61,5s4.31,1.4,6.36,3.41a12.4,12.4,0,0,1,3.81,7.29A20,20,0,0,1,581.47,289.28Z" style="fill:#ffc4c0"></path><path d="M543.62,259a53.1,53.1,0,0,0-8.43,1c-.19,0-.18.33,0,.31,2.75-.31,5.53-.38,8.3-.48s5.53-.17,8.28-.12a0,0,0,0,0,0,0A44.73,44.73,0,0,0,543.62,259Z" style="fill:#263238"></path><path d="M563,267.48c-5.93-1.61-10.65-2.49-18.09-1.54-.24,0-.22.39,0,.37,7.07-.46,11.68.25,18.06,1.3C563.05,267.62,563.06,267.5,563,267.48Z" style="fill:#263238"></path><path d="M573.25,278.17a42.23,42.23,0,0,0-18.1-1.78c-.25,0-.3.38,0,.38a104.4,104.4,0,0,1,18.08,1.68A.14.14,0,0,0,573.25,278.17Z" style="fill:#263238"></path><path d="M513.33,257.62a78.92,78.92,0,0,0-7.87,1.73c-2.75.67-5.5,1.4-8.2,2.27a162,162,0,0,0-15.82,6.12.17.17,0,0,0,.12.31c5.27-1.8,10.59-3.49,15.92-5.13,2.62-.81,5.22-1.66,7.83-2.5s5.46-1.51,8.09-2.48A.16.16,0,0,0,513.33,257.62Z" style="fill:#263238"></path><path d="M496.67,259.28l32.19,54.38s-46.42,24.84-95.64,25.44c-16,.19-34-10.79-34.39-30.76-.51-28,43.4-99.1,72.82-125.94,11.77-10.74,21.18-6.48,12.58,23.52-6,20.85-23.06,68.56-23.06,68.56Z" style="fill:#263238"></path><path d="M484.22,216.75c-1.17,1.91-2.36,3.8-3.36,5.81-.05.09-.09.19-.14.28q2.22-6.84,4.24-13.73c.08-.29-.39-.44-.49-.16-6.61,16.87-12.73,34-18.67,51.07-1.66,4.79-3.12,9.63-4.63,14.46-.05.17.22.25.29.09,1.82-4.14,3.65-8.26,5.31-12.48s3.2-8.48,4.76-12.74c2.73-7.44,5.32-14.91,7.83-22.43.78-1.32,1.58-2.63,2.32-4,1.08-1.95,2-4,2.87-6A.18.18,0,0,0,484.22,216.75Z" style="fill:#37474f"></path><path d="M507.61,299c-2.07-3.5-4.11-7-6.18-10.5s-4-6.87-6-10.32S491.39,271,489,267.65a.07.07,0,0,0-.12.06,91,91,0,0,0,5.19,10.59C496,281.88,498,285.42,500,289s4,6.89,6.06,10.3A91.34,91.34,0,0,0,513,309.52c.11.13.35,0,.27-.14A106.82,106.82,0,0,0,507.61,299Z" style="fill:#37474f"></path><path d="M498.24,262.43a6,6,0,0,0-.81-1.56l-.95-1.49.27.09c-5.3,2.54-10.63,5-16,7.41-15.41,7-32.91,14.21-48.37,21.08,15.11-9.08,31.45-15.91,47.71-22.63,5.51-2.21,11.06-4.34,16.66-6.31.44.81.86,1.71,1.22,2.56a2.59,2.59,0,0,1,.25.85Z" style="fill:#37474f"></path><path d="M520.83,300.11c3,4.56,5.93,9.15,8.83,13.78-6.76,3.38-13.67,6.39-20.67,9.22A261.26,261.26,0,0,1,472.37,335c-8.89,2-18.15,3.56-27.26,3.49,14.59-1.33,28.69-5.31,42.58-9.78s27.51-9.83,40.93-15.57l-.25.79q-3.82-6.88-7.54-13.83Z" style="fill:#37474f"></path><path d="M439.85,263.75c-.64,5.68,17.67,8.55,19.58,9.3a9.71,9.71,0,0,1,2,1.19s0,0,.05,0h0l.13.09c1.74-1.34,33.26-14.66,35.05-15.1l1.37,2.31.32.56a110.45,110.45,0,0,1,15.14-4.54S503.4,244,489.89,236.67A59.68,59.68,0,0,0,476.65,232c-8.63-2.09-17.56-2.92-19.31-1-3.94,4.26,4.19,5.89,5.21,6.31-1.27-.25-12.29-1.07-14.67,2.5-3.31,5,5.76,8.27,6.77,8.63-1-.07-10.87-.9-13.28,2.56-3.41,4.89,6.51,7.54,7.69,7.84C448,258.71,440.48,258.12,439.85,263.75Z" style="fill:#ffc4c0"></path><path d="M471.77,267.57l-.58.19c-3.11-2.58-12.32-7.11-21.77-8.63-.59-.09-.61-.43,0-.38C461.12,259.65,468.78,264.64,471.77,267.57Z" style="fill:#263238"></path><path d="M455.09,248.81c13,3,18.83,6.09,29.87,13.59.15.11.34-.12.19-.24-10.25-8.18-16.66-12.28-29.94-13.68C454.61,248.42,454.49,248.67,455.09,248.81Z" style="fill:#263238"></path><path d="M462.94,237.58c12.46,3.73,19,6.83,28.85,15.33a.22.22,0,1,0,.32-.3c-9.25-9.55-17.37-13.47-29-15.38C462.28,237.1,462.16,237.34,462.94,237.58Z" style="fill:#263238"></path><path d="M521,191.58c-7.38,4.27-22.33-5.59-28.37-15.23-.41-.67-1-27.8-1.31-33.27-.07-1.12,34.8,6.33,34.8,6.33s-2.71,11.66-2.09,21.2a11.93,11.93,0,0,0,.37,2.23c0,.1.05.22.07.37C525.44,177.43,524.81,189.39,521,191.58Z" style="fill:#ffc4c0"></path><path d="M524.5,173.21a21.89,21.89,0,0,1-3.51.39c-18,.66-25.77-21-28.33-30.57,6.35.58,33.5,6.37,33.5,6.37s-2.72,11.67-2.09,21.22a10.86,10.86,0,0,0,.36,2.21C524.44,172.93,524.49,173.06,524.5,173.21Z" style="fill:#263238"></path><path d="M531.63,85.45s10.58,4.84,12.16,15.83-1.33,22.34-2.29,22.86S531.63,85.45,531.63,85.45Z" style="fill:#263238"></path><path d="M485.76,100.7c-3.86,12.15,2.15,47.42,10.72,55.38,12.42,11.53,33,12.86,42.83-2.12,9.55-14.53.9-60.37-8.69-67.62C516.49,75.67,491.47,82.77,485.76,100.7Z" style="fill:#ffc4c0"></path><path d="M515.65,122.59c0-.09-.17.14-.15.24.47,2.36.6,5.15-1.42,6.3-.06,0,0,.15,0,.13C516.69,128.45,516.47,124.75,515.65,122.59Z" style="fill:#263238"></path><path d="M513.11,120.46c-3.87.34-2.9,8.06.69,7.74S516.36,120.17,513.11,120.46Z" style="fill:#263238"></path><path d="M529.93,120.76c0-.1.2.09.21.19.23,2.4.89,5.11,3.15,5.63.07,0,.08.14,0,.14C530.6,126.68,529.76,123.07,529.93,120.76Z" style="fill:#263238"></path><path d="M531.75,118c3.81-.77,5.08,6.9,1.55,7.62S528.56,118.64,531.75,118Z" style="fill:#263238"></path><path d="M509.7,116.63a30.55,30.55,0,0,0,3.1-.78,5.23,5.23,0,0,0,3-1.39,1.67,1.67,0,0,0-.08-2c-1.07-1.14-2.62-1.12-4.06-.8a6,6,0,0,0-3.68,2.26A1.76,1.76,0,0,0,509.7,116.63Z" style="fill:#263238"></path><path d="M534.41,115.9a30.92,30.92,0,0,1-3.19.12,5.2,5.2,0,0,1-3.28-.5,1.66,1.66,0,0,1-.49-2c.71-1.39,2.2-1.81,3.67-1.9a6,6,0,0,1,4.17,1.14A1.76,1.76,0,0,1,534.41,115.9Z" style="fill:#263238"></path><path d="M516.7,145.08c.64.49,1.31,1.19,2.19,1.15a6.26,6.26,0,0,0,2.49-.92.08.08,0,0,1,.12.11,3.27,3.27,0,0,1-2.87,1.68,2.58,2.58,0,0,1-2.15-1.88C516.43,145.08,516.6,145,516.7,145.08Z" style="fill:#263238"></path><path d="M518.31,137.6a8.23,8.23,0,0,0,5.89,3,10.13,10.13,0,0,0,2.95-.24,3.16,3.16,0,0,0,.55-.13,4.19,4.19,0,0,0,.52-.15.6.6,0,0,0,.41-.59v0a.93.93,0,0,0,0-.24v0l0-.21c-.18-1.85-.71-4.63-.71-4.63.71.26,4.34,1.37,4.16.41-1.47-7.9-3.11-16.69-6.25-24.24a.22.22,0,0,0-.43.11c1.12,7.65,3.57,15.06,4.82,22.73a14.37,14.37,0,0,0-4-.69c-.25.11,1.12,5.35,1.13,6.19a.23.23,0,0,1,0,.09c-3,.78-5.5.14-8.76-1.56C518.31,137.25,518.15,137.43,518.31,137.6Z" style="fill:#263238"></path><path d="M491.77,131.82c6.18-1.37,3.15-16.52,3.15-16.52s9.24-3.23,11.81-17c0,0,13.47,5.74,23.44,2.23C545.8,95,542,74.17,535.33,70.87c-9.5-4.68-23.31,6.54-23.31,6.54s-24-2.74-28.4,13.92c0,0-10.19,2.09-9.09,13.54S487.17,132.83,491.77,131.82Z" style="fill:#263238"></path><path d="M493,117.45a21.46,21.46,0,0,0,11-8.49c2.62-4.18,3.57-10.11,1.42-14.67-.12-.24.3-.41.4-.15,2,5.13,2.55,10.65-.12,15.67a15,15,0,0,1-12.56,8.09A.23.23,0,0,1,493,117.45Z" style="fill:#263238"></path><path d="M472.65,98.36c2.53-4.53,7.27-5.93,12.08-6.52.27,0,.32.41,0,.42-4.79.22-9,4.11-10.87,8.36s-.5,8.83,1.14,12.84a33.87,33.87,0,0,0,16.52,17.79c.13.06,0,.25-.08.19A33.86,33.86,0,0,1,473,112C471.5,107.77,470.32,102.53,472.65,98.36Z" style="fill:#263238"></path><path d="M511.51,78.27a15.93,15.93,0,0,1,7.76-8.18,19,19,0,0,1,13.57-.77,10.74,10.74,0,0,1,7,8.15c1,4.31-.4,8.74-2.32,12.55a.09.09,0,0,1-.17-.08c1.47-3.55,2.42-7.46,1.56-11.32a9.89,9.89,0,0,0-7.13-7.72c-7.07-1.88-16.65.14-19.9,7.55C511.79,78.7,511.4,78.52,511.51,78.27Z" style="fill:#263238"></path><path d="M494.68,129.65s-7.83-11.47-13-8.7.6,19.35,6.64,21.68a6.16,6.16,0,0,0,8.3-3.22Z" style="fill:#ffc4c0"></path><path d="M483.43,125.66a.08.08,0,0,0,0,.16c4.23,1.78,6.42,5.74,7.94,9.85-1.24-1.59-2.95-2.47-5.08-1-.11.08,0,.25.11.23a3.79,3.79,0,0,1,4.16,1.37,18.2,18.2,0,0,1,2,3.4c.2.38.89.19.75-.25l0-.1C493.37,133.91,489.25,126.28,483.43,125.66Z" style="fill:#263238"></path><path d="M524.06,170.61l-7.9,19-24-24-6.62,7.7S509,211.74,509.13,210L517,193.44l11.45,11.45-1-28.86Z" style="fill:#ebebeb"></path><path d="M528.7,190.59c-.34-4.75-.54-9.56-1.09-14.29,0-.17-.29-.24-.33-.05-.93,4.6.44,22.79.44,27.16l-.05,0c-.48-.5-10.61-10.07-10.71-9.92-1.71,2.63-7.45,14.69-7.84,15.79-3.71-6.11-19.46-30.17-23.84-35.94a.17.17,0,0,0-.29.17c3.28,6.45,23.63,38.2,23.92,38.11.19.16,7.33-14.7,8.18-17.5,1.72,2.09,11.95,12.9,12,12.19A149,149,0,0,0,528.7,190.59Z" style="fill:#263238"></path><path d="M485.37,174c-.31,8.53-.82,17.89-1.33,26.44l-.38-.7,7.54,4.09,7.51,4.12.6.33c-1.14,5.78-2.26,11.57-3.47,17.34l-.33-.95c9.83,8.23,19.55,16.61,29,25.31-10.45-7.77-20.62-15.9-30.67-24.17,1.12-5.75,2.32-11.48,3.5-17.22l.47,1c-3.71-2.12-11.15-6.43-14.84-8.58l-.42-.25.05-.45c.83-8.54,1.77-17.85,2.8-26.33Z" style="fill:#37474f"></path><path d="M527.36,176c3.57,8.42,6.91,16.93,10.19,25.47l.13.36-.2.36-4.16,7.44,0-.9,2.38,4.93c.87,1.77,1.68,3.56,2.53,5.34l-.17.4c-4.29,10.3-8.75,20.53-13.62,30.57,3.6-10.56,7.63-21,11.82-31.31l0,.79c-1.49-3-3.47-7.26-4.92-10.36l.26-.42,4.35-7.33-.07.71c-3-8.64-5.9-17.31-8.58-26.05Z" style="fill:#37474f"></path></g><g id="freepik--character-1--inject-53"><path d="M132.84,448.06h93.77l.2-.94L257.55,294H171.93s-3.12,12.08-8,31C156.12,355.44,143.83,403.64,132.84,448.06Z" style="fill:#263238"></path><path d="M171.93,293.83s0,.05,0,.12c.21,1.08,12.17,60.57,12.68,61.85,0,0,18.11,7.83,19.15,8.39l6.5,83.87h91.42c-4-35.39-7.43-66.45-6.93-68.15,4.8-16.57,3.19-34.89-.18-50.34-.23-1.05-11.87-35.62-11.87-35.62Z" style="fill:#263238"></path><path d="M241.21,180a5.92,5.92,0,0,0,10.72.27c1.18,2.12,3.32,3.61,5.91,3.05a5.22,5.22,0,0,0,4-5.64s0,0,0,0a5.34,5.34,0,0,1-4,5.21,4.79,4.79,0,0,1-4.9-2.07,6.55,6.55,0,0,0,5.12,1,5.07,5.07,0,0,0,3.75-4.17,7.47,7.47,0,0,0,6.46-1.8,5,5,0,0,0,1.15-5.42,5.66,5.66,0,0,0,3.84-9.68,4.75,4.75,0,0,0,3.4-7.25,3.21,3.21,0,0,0,2.17-2.7,5.36,5.36,0,0,0-1.34-3.89,3.83,3.83,0,0,0,.73-3.59,3.47,3.47,0,0,0-3.88-2.28c-.07-2.29-.46-4.76-2.09-6.47a5,5,0,0,0-5.31-1.43,6.87,6.87,0,0,0-8.68-5.51,4.87,4.87,0,0,0-4-2.68,7,7,0,0,0-3.41.48,3.63,3.63,0,0,0-3.88-1.7,4.79,4.79,0,0,0-3.17,2.6,2.92,2.92,0,0,1-1.17.33,6.28,6.28,0,0,0-5.09,3.07,4.29,4.29,0,0,0-5.26,3.72,4.83,4.83,0,0,0-4.47,5.09,7,7,0,0,0-4.9,3.19,4.09,4.09,0,0,0-.21,4.47,2.46,2.46,0,0,0-1.49,2.92,5.73,5.73,0,0,0,.42,1.29,5.27,5.27,0,0,1,.66,1.62,4,4,0,0,1-.58,1.58,5.48,5.48,0,0,0-.31,1.12,6.37,6.37,0,0,0,4,6.9c-.76,1.94.27,4,1.67,5.38a10.9,10.9,0,0,0,1.51,1.2,2.74,2.74,0,0,1,1.13,1.25c.14.35.2.74.34,1.09a4.44,4.44,0,0,0,2.68,2.28C230.82,178.14,236.47,182,241.21,180Zm5.09-55.62a3.82,3.82,0,0,1,4.28,1.12l-.18.09s-.44-.29-.67-.4a4.77,4.77,0,0,0-1.34-.43,5,5,0,0,0-2.87.37,5.26,5.26,0,0,0-1.1.7l-.13.1A4.58,4.58,0,0,1,246.3,124.42Zm31,19.93a3.69,3.69,0,0,0-3-2.93v-.12c1.57,0,3,.43,3.57,2.17a3.22,3.22,0,0,1-.71,3.12h0A4.11,4.11,0,0,0,277.31,144.35ZM232.88,173l.05,0a6.64,6.64,0,0,0,6,7.07C235.08,179.94,231.83,177.63,232.88,173Z" style="fill:#263238"></path><path d="M221.17,187.43c-5.73,12.7-67.1,126.1-75.07,126.39-23.48.87-51.23-.47-47.37-18.87,6-28.88,71.14-89.84,103.84-114.14C222.15,166.27,226.83,174.9,221.17,187.43Z" style="fill:#37474f"></path><path d="M221.18,187.43c-5.75,12.7-67.11,126.09-75.08,126.38-23.48.88-51.22-.46-47.37-18.86.15-.75.36-1.53.6-2.34L211.07,175.43C223.42,169.22,225.9,177,221.18,187.43Z" style="fill:#263238"></path><path d="M168.89,298.81s83.5,8.74,119.19,6.94c0,0-18.24-99.07-42.38-127.18-11-12.79-22.41-12.39-32.63-5.24-2.55,1.78-34.95,36.57-38.3,49.2-3,11.16,5.81,24.3,5.81,24.3Z" style="fill:#ebebeb"></path><polygon points="220.22 198.7 216.34 189.48 208.38 195.84 209.29 202.52 216.5 203.74 220.22 198.7" style="fill:#452B01"></polygon><polygon points="216.5 203.74 210.47 270.42 192.97 298.98 184.59 268.81 209.29 202.52 216.5 203.74" style="fill:#452B01"></polygon><path d="M214.1,172.21s-15,32.49-16.3,41,.66,40.86.66,40.86,21.74-32.66,27.18-43.32c8.45-16.57,11.59-40.17,11.59-40.17s7.15,3.68,16,17c11.85,17.81,31.15,83.19,36.55,119.27l-88.73,7.79-7.65-13.48-7.32,11.38L165.87,300l14.71-53.19s-10.22-12.12-4.66-27.29C182,203,214.1,172.21,214.1,172.21Z" style="fill:#37474f"></path><path d="M198.44,254,188,214.71l9.47-9.64-7.57-1.93s21.94-28.64,24.18-30.89c-.57,1.23-15,32.61-16.27,40.95S198.34,252.24,198.44,254Z" style="fill:#263238"></path><path d="M229.32,209.62l3,13.15-33.82,31.28c.64-1,21.81-32.82,27.16-43.32,8.46-16.55,11.58-40.16,11.58-40.16l1.12,37.21Z" style="fill:#263238"></path><path d="M182.34,207.51c2-2.5,4-5,6.06-7.41.37-.88.81-1.74,1.22-2.59a29,29,0,0,1,2.2-3.61,29.75,29.75,0,0,1-1.7,3.83c-.2.36-.38.69-.56,1,2.08-2.38,4.22-4.72,6.42-7-4.13,5.55-8.59,10.86-12.74,16.36a79.08,79.08,0,0,0-5.84,8.46,26.94,26.94,0,0,0-1.48,2.94c-.91,2.5-2.68,7.71-.23,16a52,52,0,0,0,2.68,8.2c.1.2-.22.34-.31.14a74.86,74.86,0,0,1-3.32-8.33,26.34,26.34,0,0,1-1.29-8.54C173.46,218.76,178.13,213.58,182.34,207.51Z" style="fill:#263238"></path><path d="M198.46,254.06c-1,15.73-2.71,31.5-5.06,47.09,1-15.73,2.71-31.5,5.06-47.09Z" style="fill:#263238"></path><path d="M205.68,264.33c-.26,3.2-5.24,3.05-5.14-.32.32-3.37,5.28-2.89,5.14.32Zm0,0c.07-2.73-4-2.79-4.15-.26s3.88,3,4.15.26Z" style="fill:#263238"></path><path d="M204.08,278.23c-.27,3.2-5.25,3-5.15-.33.32-3.36,5.28-2.88,5.15.33Zm0,0c.07-2.73-4-2.8-4.15-.26a2.08,2.08,0,0,0,4.15.26Z" style="fill:#263238"></path><path d="M202.47,292.12c-.27,3.21-5.24,3.06-5.15-.32.33-3.36,5.29-2.88,5.15.32Zm0,0c.07-2.72-3.95-2.79-4.15-.26a2.08,2.08,0,0,0,4.15.26Z" style="fill:#263238"></path><polygon points="233.69 269.09 265.1 265.64 265.84 269.55 234.18 273.03 233.69 269.09" style="fill:#263238"></polygon><path d="M241.92,192.8c7.24,11.36,46.86,57.34,47.8,61.68.52,2.44-9.22,10.51-9.17,12.25.19,7,18.32,63,24.68,58.61,8.38-5.75,39.66-54.36,36.06-74s-82.79-72.83-95.08-77.64S234.77,181.58,241.92,192.8Z" style="fill:#37474f"></path><path d="M272.21,231.24A122.69,122.69,0,0,1,257.82,214a122.69,122.69,0,0,1,14.39,17.29Z" style="fill:#263238"></path><path d="M259,219.93a29.86,29.86,0,0,1,6.91,3.7,30,30,0,0,1-6.91-3.7Z" style="fill:#263238"></path><path d="M280,338.46c-5.49-4.22,2.63-8.27,2.63-8.27s-13.09,3-17.06-3.54c-3.81-6.32,6.17-10.86,6.88-11.19-.69.15-12.79,2.6-16.11-4.39-3.43-7.27,7.37-10.11,8.07-10.29-.7-.06-10-1-11.26-6.91-2.24-10.1,24.47-9.6,30.6-15.32,0,0-1.78-13.26-1.95-13.65,0,0,2.61,5.3,7.18,6.9,5.66,2,10.79,3.25,12.95,6.16a7.6,7.6,0,0,1,.31,9.06s7.33-.4,10.11,5c1.42,2.79-1.77,7.54-1.77,7.54s5.89-.07,8.06,4.9c1.75,4-1.73,8.11-1.73,8.11s5.69,2.56,6.15,7.19C324,329.11,291.7,347.5,280,338.46Z" style="fill:#ad6359"></path><path d="M316.41,313.33a.1.1,0,0,1,.13.15c-9.14,8.64-21.83,15.33-34.37,17-.41.05-.68-.6-.24-.74C294.54,325.55,305.39,320.85,316.41,313.33Z" style="fill:#263238"></path><path d="M310.73,299.55c.12-.08.26.12.14.22-9.46,8.85-24,16-38.65,16.19-.5,0-1-.5-.38-.55C281.59,314.54,300.84,306.36,310.73,299.55Z" style="fill:#263238"></path><path d="M263.33,300.44c14.07-.73,26.49-5.89,38.49-13,.16-.1.27.13.16.25-4.91,5.09-13,8.84-19.6,11.23a37.11,37.11,0,0,1-19,2.05C263.1,300.9,263,300.46,263.33,300.44Z" style="fill:#263238"></path><path d="M317.24,312.58c2.22-2.46,3.83-5.63,2.63-9a6.76,6.76,0,0,0-3.06-3.54c-1.75-1-4.23-.82-5.43-.84,2-2.91,2.87-6.79.76-9.87a6.56,6.56,0,0,0-4.09-2.52,21.27,21.27,0,0,0-5.71-.13,7.74,7.74,0,0,0,2.08-6.64,8.45,8.45,0,0,0-4.8-6c-2.77-1.45-5.9-1.89-8.89-2.66a20,20,0,0,1-4.53-1.55,8.83,8.83,0,0,1-3.62-3.66c-.16-.27-.16,0,0,.24a11,11,0,0,0,2.09,2.83,13.5,13.5,0,0,0,3,2.22c2.63,1.48,5.62,2,8.42,3.05a12,12,0,0,1,6.19,4.66,7.17,7.17,0,0,1-.23,7.54c-.09.11,0,.29.19.29a20.88,20.88,0,0,1,5,.89,7.12,7.12,0,0,1,3.42,2.43c1.73,2.71,1.42,6.39-.13,9.2,0,.1,3,.26,5.25,1.7a6.62,6.62,0,0,1,2.34,3,7.93,7.93,0,0,1-1.34,8.23.25.25,0,0,0,0,.11h0v.07a.21.21,0,0,0,.06.1h0s1.81.89,1.9.9.06-.07,0-.1A14.07,14.07,0,0,0,317.24,312.58Z" style="fill:#263238"></path><polygon points="198.07 327.22 192.53 223.43 113.89 228.96 119.42 332.74 198.07 327.22" style="fill:#452B01"></polygon><polygon points="109.81 263 108.11 231 113.89 228.96 115.73 263.6 109.81 263" style="fill:#452B01"></polygon><g style="opacity:0.2"><polygon points="198.07 327.22 192.53 223.43 113.89 228.96 119.42 332.74 198.07 327.22"></polygon><polygon points="109.81 263 108.11 231 113.89 228.96 115.73 263.6 109.81 263"></polygon></g><polygon points="198.06 327.05 192.51 223.01 116.47 223.72 122.02 327.76 198.06 327.05" style="fill:#452B01"></polygon><polygon points="198.06 327.05 192.51 223.01 116.47 223.72 122.02 327.76 198.06 327.05" style="opacity:0.1"></polygon><path d="M202.19,255c2.87,4.87-1.05,9.22-1.05,9.22a12,12,0,0,1,5.53,6c1.69,4.67-4.89,9.37-4.89,9.37A14.8,14.8,0,0,1,206.6,287c1.17,4.63-4.8,10.32-4.8,10.32a13,13,0,0,1,.19,9.1c-3.07,7.79-15.65,10.12-23.63,11.68s-32.07-1.48-36.72-1.6l-10.46-51.13s33.79-17.18,43.43-17.68C182.73,247.22,199,249.53,202.19,255Z" style="fill:#ad6359"></path><path d="M135.15,263.35c-9.71,3.82-38.95,22.75-36.78,36.35s20.31,15.65,48.72,17.18Z" style="fill:#ad6359"></path><path d="M200.62,263.48c-8.75-1.62-17.5-.57-26.29,0a.16.16,0,0,0,0,.31c8.74-.66,17.5.43,26.24.13A.21.21,0,0,0,200.62,263.48Z" style="fill:#263238"></path><path d="M201.48,279a22.82,22.82,0,0,0-6.06.27q-3.19.36-6.39.83c-4.26.63-8.5,1.35-12.72,2.2-.18,0-.17.33,0,.3,4.24-.62,8.49-1.17,12.76-1.6,2.13-.22,4.27-.42,6.4-.61a27.69,27.69,0,0,0,6-.8A.31.31,0,0,0,201.48,279Z" style="fill:#263238"></path><path d="M201.62,297.3c-1.72-.34-3.74.25-5.44.53-1.93.33-3.87.64-5.81.95-3.87.6-7.74,1.21-11.63,1.68-.2,0-.18.33,0,.3,4-.46,7.92-.86,11.87-1.35,1.94-.25,3.88-.5,5.82-.77,1.65-.22,3.73-.31,5.21-1.15C201.74,297.45,201.71,297.32,201.62,297.3Z" style="fill:#263238"></path><path d="M135.15,263.35c-9.71,3.82-38.95,22.75-36.78,36.35s18.89,18.82,45.46,22.28Z" style="fill:#37474f"></path><path d="M134.05,263.47a78,78,0,0,0-9.9,4.48l-2.43,1.41-1,.29c-1.36.42-2.7.88-4,1.42a63.09,63.09,0,0,0-7.34,3.71.15.15,0,0,0,.15.27,55,55,0,0,1,7.63-3.25l1-.34c-1.38.86-2.75,1.75-4,2.71a105.44,105.44,0,0,0-9.94,8.19c-.14.14.07.35.22.22,5.7-5.15,27.53-17,30-18.49S135.79,262.74,134.05,263.47Z" style="fill:#263238"></path><path d="M235.69,177.49c-.83,2.18-13.57,15.38-23.82,13.51-3.34-.62-.79-19-.79-19l-.13-1.4L209.26,151l24.26-11.32,3.48-1.46s.11,5.39.18,12.1c0,.31,0,.62,0,.95s0,.74,0,1.1c0,1,0,2,0,3,0,.78,0,1.53,0,2.35s0,1.61,0,2.43C237,168.29,236,176.56,235.69,177.49Z" style="fill:#ad6359"></path><path d="M237.18,150.36A39.43,39.43,0,0,1,211,170.62L209.26,151l24.26-11.32,3.48-1.46S237.11,143.65,237.18,150.36Z" style="fill:#263238"></path><path d="M184.39,120.26c-6.33,33.91,13.27,41.53,20.58,42.88,6.64,1.24,29.4,4.58,39.19-28.48s-4-46.73-19-50.35S190.72,86.36,184.39,120.26Z" style="fill:#ad6359"></path><path d="M193.83,115.23a21.86,21.86,0,0,0,2.43-.14,3.91,3.91,0,0,0,2.46-.61A1.26,1.26,0,0,0,199,113a3.11,3.11,0,0,0-2.92-1.19,4.57,4.57,0,0,0-3.08,1.16A1.34,1.34,0,0,0,193.83,115.23Z" style="fill:#263238"></path><path d="M217.28,117.75a22.26,22.26,0,0,1-2.28-.86,4,4,0,0,1-2.16-1.32,1.26,1.26,0,0,1,.23-1.51,3.11,3.11,0,0,1,3.15-.25,4.56,4.56,0,0,1,2.59,2A1.34,1.34,0,0,1,217.28,117.75Z" style="fill:#263238"></path><path d="M210.9,125.8c0-.09.17.14.15.24-.5,2.35-.67,5.13,1.33,6.29.06,0,0,.15,0,.13C209.79,131.63,210.06,128,210.9,125.8Z" style="fill:#263238"></path><path d="M213.45,123.7c3.86.39,2.8,8.07-.77,7.71S210.22,123.38,213.45,123.7Z" style="fill:#263238"></path><path d="M214.9,124.32c.61.52,1.17,1.38,2,1.57s1.74-.48,2.46-1.17c.08-.07.13,0,.12.11-.18,1.47-.95,2.9-2.56,2.9s-2.32-1.44-2.49-3C214.36,124.48,214.66,124.11,214.9,124.32Z" style="fill:#263238"></path><path d="M197.17,123.29c0-.1-.2.08-.21.18-.24,2.39-.91,5.09-3.16,5.6-.07,0-.08.14,0,.14C196.48,129.18,197.33,125.59,197.17,123.29Z" style="fill:#263238"></path><path d="M195.37,120.52c-3.8-.79-5.09,6.86-1.58,7.59S198.54,121.18,195.37,120.52Z" style="fill:#263238"></path><path d="M193.69,120.76c-.68.3-1.4.93-2.13.86s-1.32-1-1.72-1.9c0-.1-.11,0-.13.06-.29,1.45-.07,3.06,1.29,3.57s2.39-.62,3-2C194.09,121.08,194,120.63,193.69,120.76Z" style="fill:#263238"></path><path d="M207.7,145c-.6.52-1.22,1.26-2.1,1.28a6.23,6.23,0,0,1-2.54-.76.09.09,0,0,0-.11.12,3.25,3.25,0,0,0,3,1.49,2.57,2.57,0,0,0,2-2C208,144.93,207.79,144.87,207.7,145Z" style="fill:#263238"></path><path d="M198.79,134.29s-1,4.06-1.2,5.74c0,.15,5.8,1.13,9.22-2.23.14-.15-.06-.35-.23-.27a12.06,12.06,0,0,1-7.51,1.41c-.06-.48,1.73-6.12,1.47-6.17a14.62,14.62,0,0,0-3.92.41c1.69-7.35,4.54-14.38,6.11-21.72a.23.23,0,0,0-.43-.16c-3.51,7.15-5.63,15.57-7.57,23.12C194.48,135.36,198.09,134.5,198.79,134.29Z" style="fill:#263238"></path><path d="M199,139.71a9.93,9.93,0,0,0,3.55,3.51,4.47,4.47,0,0,0,2.65.49c2-.27,2.25-2,2.08-3.6a10.44,10.44,0,0,0-.58-2.43A12.74,12.74,0,0,1,199,139.71Z" style="fill:#263238"></path><path d="M202.58,143.22a4.47,4.47,0,0,0,2.65.49c2-.27,2.25-2,2.08-3.6C205.22,140.07,203,141.23,202.58,143.22Z" style="fill:#ff98b9"></path><path d="M208.33,91.09s-1.71,5.11-.18,9c3.15,8,12.54,6.55,15.5,9.81,2.77,3.06,1.33,8.91,3.82,12,3.45,4.21,8.61,3,9.05,5.72s1.62,11.31,4.93,12.62,21.34-54.49-21.27-56.82c0,0-6.83-2.42-16.57,1.72-10.74,4.56-16.76,25.07-16.76,25.07a11.19,11.19,0,0,1,2.68-4.06c2.27-1.75,3.21-3.45,4.86-4.57,2.58-1.76,3.88-.94,6.56-2.64C205,96.28,208.33,91.09,208.33,91.09Z" style="fill:#263238"></path><path d="M209.17,88.68a29.75,29.75,0,0,0-1.75,6.71,12.52,12.52,0,0,0,.5,6.67,9.13,9.13,0,0,0,4.8,4.3c2.05.92,4.36,1.3,6.56,2.36a6.83,6.83,0,0,1,2.81,2.43,9.08,9.08,0,0,1,1.07,3.5c.32,2.32.65,4.59,2,6.32a7.67,7.67,0,0,0,5.76,2.9c2.23.15,4.73-.31,6.84.81-2.19-1-4.52-.3-6.86-.28a8.25,8.25,0,0,1-6.38-2.89c-1.7-1.87-2-4.47-2.38-6.69a8.12,8.12,0,0,0-1-3.11,5.83,5.83,0,0,0-2.41-2c-2-1-4.3-1.42-6.47-2.42a12,12,0,0,1-3-2,7.24,7.24,0,0,1-2.15-3,13.13,13.13,0,0,1-.24-7.08A30,30,0,0,1,209.17,88.68Z" style="fill:#263238"></path><path d="M208.19,90.65a24.63,24.63,0,0,1-2.56,6,11.38,11.38,0,0,1-4.77,4.6,16.2,16.2,0,0,1-3.14,1,5.23,5.23,0,0,0-2.49,1.45,17.19,17.19,0,0,1-2.1,2.5,7.29,7.29,0,0,1-2.92,1.45,7.74,7.74,0,0,0,2.54-1.85,16.48,16.48,0,0,0,1.81-2.61,5.56,5.56,0,0,1,2.86-1.92,17.83,17.83,0,0,0,3-1,12.23,12.23,0,0,0,4.51-4.11A49.2,49.2,0,0,0,208.19,90.65Z" style="fill:#263238"></path><path d="M236.4,134.25s8.54-10,13.14-6.83-2.56,18.13-8.47,19.69a5.84,5.84,0,0,1-7.48-3.88Z" style="fill:#ad6359"></path><path d="M247.38,131.66c.1,0,.1.13,0,.16-4.16,1.23-6.63,4.73-8.49,8.43,1.34-1.36,3-2,4.88-.4.1.08,0,.24-.13.2a3.6,3.6,0,0,0-4,.86,17.4,17.4,0,0,0-2.19,3c-.23.34-.85.09-.68-.31l0-.09C237.19,138.39,241.85,131.64,247.38,131.66Z" style="fill:#263238"></path><path d="M211.08,172,216,188.71l20.82-20.86L241,174.7s-18.76,32.15-18.9,30.71l-6.74-13.55-9.28,9.65.39-23.86Z" style="fill:#ebebeb"></path><path d="M205.63,189.7c.19-3.94.28-7.91.66-11.83,0-.14.23-.21.27,0,.85,3.78,0,18.84.09,22.44l0,0c.38-.42,8.6-8.5,8.69-8.37,1.44,2.14,6.39,12,6.73,12.91,3-5.1,14.35-23.67,17.88-28.51a.14.14,0,0,1,.24.13c-2.61,5.38-17.66,30.39-17.9,30.32a152,152,0,0,1-7.05-14.33c-1.39,1.76-9.67,10.86-9.71,10.27A124.31,124.31,0,0,1,205.63,189.7Z" style="fill:#263238"></path></g><g id="freepik--Books--inject-53"><rect x="546.87" y="436.69" width="133.61" height="11.38" transform="translate(1227.35 884.76) rotate(180)" style="fill:#a6a6a6"></rect><rect x="645.25" y="436.69" width="5.45" height="11.38" transform="translate(1295.94 884.76) rotate(180)" style="fill:#452B01"></rect><rect x="654.29" y="436.69" width="5.45" height="11.38" transform="translate(1314.03 884.76) rotate(180)" style="fill:#452B01"></rect><rect x="560.2" y="436.69" width="5.45" height="11.38" transform="translate(1125.85 884.76) rotate(180)" style="fill:#452B01"></rect><rect x="569.24" y="436.69" width="5.45" height="11.38" transform="translate(1143.93 884.76) rotate(180)" style="fill:#452B01"></rect><rect x="555.51" y="413.35" width="69.93" height="23.34" style="fill:#263238"></rect><rect x="625.44" y="413.35" width="59.98" height="23.34" style="fill:#37474f"></rect><rect x="555.51" y="415.77" width="67.04" height="18.5" style="fill:#fff"></rect><path d="M622.55,434.27c-.24,0-67,.21-67.26.21v-.21l0-18.5v-.25h.25l67.14.14c0,.09-.12,18.51-.1,18.61Zm0,0-.11-18.5c.7.29-67.1.16-66.93.25l.25-.25,0,18.5-.21-.22,67,.22Z" style="fill:#dbdbdb"></path><path d="M558,417.81q8.07-.13,16.15-.19l16.15-.07,16.15.06q8.07.06,16.15.2-8.07.15-16.15.2l-16.15.06L574.1,418Q566,418,558,417.81Z" style="fill:#dbdbdb"></path><path d="M558,420.22q8.07-.15,16.15-.2l16.15-.06,16.15.06q8.07,0,16.15.2-8.07.13-16.15.19l-16.15.06-16.15-.06Q566,420.37,558,420.22Z" style="fill:#dbdbdb"></path><path d="M558,422.62q8.07-.15,16.15-.2l16.15-.06,16.15.06q8.07,0,16.15.2-8.07.13-16.15.2l-16.15.06-16.15-.06Q566,422.76,558,422.62Z" style="fill:#dbdbdb"></path><path d="M558,425q8.07-.15,16.15-.2l16.15-.06,16.15.06q8.07,0,16.15.2-8.07.14-16.15.2l-16.15.06-16.15-.06Q566,425.16,558,425Z" style="fill:#dbdbdb"></path><path d="M558,427.42q8.07-.15,16.15-.2l16.15-.06,16.15.06q8.07,0,16.15.2-8.07.15-16.15.2l-16.15.06-16.15-.06Q566,427.56,558,427.42Z" style="fill:#dbdbdb"></path><path d="M558,429.82q8.07-.13,16.15-.2l16.15-.06,16.15.06q8.07.06,16.15.2-8.07.15-16.15.2l-16.15.06L574.1,430Q566,430,558,429.82Z" style="fill:#dbdbdb"></path><path d="M558,432.22q8.07-.14,16.15-.2l16.15-.06,16.15.06q8.07.06,16.15.2-8.07.15-16.15.2l-16.15.06-16.15-.06Q566,432.38,558,432.22Z" style="fill:#dbdbdb"></path><path d="M566.43,421.75v16.77l6-5,6,5V421.75a1.52,1.52,0,0,1,1.53-1.53H568A1.53,1.53,0,0,0,566.43,421.75Z" style="fill:#452B01"></path><rect x="551.15" y="380.53" width="123.05" height="15.91" style="fill:#a6a6a6"></rect><rect x="562.72" y="383.78" width="47.33" height="9.55" style="fill:#dbdbdb"></rect><rect x="621.47" y="383.78" width="44.43" height="1.48" style="fill:#dbdbdb"></rect><rect x="621.47" y="387.74" width="44.43" height="1.48" style="fill:#dbdbdb"></rect><rect x="621.47" y="391.71" width="44.43" height="1.48" style="fill:#dbdbdb"></rect><rect x="620.15" y="396.36" width="81.82" height="16.98" transform="translate(1322.13 809.71) rotate(180)" style="fill:#452B01"></rect><rect x="565.49" y="396.36" width="54.67" height="16.98" transform="translate(1185.64 809.71) rotate(180)" style="fill:#452B01"></rect><rect x="565.49" y="396.36" width="54.67" height="16.98" transform="translate(1185.64 809.71) rotate(180)" style="opacity:0.1"></rect><rect x="621.95" y="398.13" width="80.02" height="13.46" transform="translate(1323.92 809.71) rotate(180)" style="fill:#fff"></rect><path d="M622,398.13c.23.22,80.48-.66,80.25,0l0,13.45v.26H702c-19.94,0-60.09-.11-80-.17h-.07v-.08l.07-13.45Zm0,0,.07,13.45c-.44-.19,40-.11,39.94-.17l40-.07-.25.24,0-13.45c1.39.62-80.1-.2-79.8,0Z" style="fill:#dbdbdb"></path><path d="M696.79,408.82q-9.36.14-18.71.19l-18.71.07L640.66,409q-9.36-.06-18.71-.2,9.34-.15,18.71-.2l18.71-.06,18.71.06Q687.44,408.67,696.79,408.82Z" style="fill:#dbdbdb"></path><path d="M696.79,406.18q-9.36.13-18.71.19l-18.71.06-18.71-.05q-9.36-.06-18.71-.2,9.34-.15,18.71-.2l18.71-.06,18.71.06Q687.44,406,696.79,406.18Z" style="fill:#dbdbdb"></path><path d="M696.79,403.54q-9.36.13-18.71.19l-18.71.06-18.71-.05q-9.36-.06-18.71-.2,9.34-.15,18.71-.2l18.71-.06,18.71.06Q687.44,403.39,696.79,403.54Z" style="fill:#dbdbdb"></path><path d="M696.79,400.9q-9.36.14-18.71.19l-18.71.06-18.71-.06q-9.36,0-18.71-.19,9.34-.15,18.71-.2l18.71-.06,18.71.06Q687.44,400.75,696.79,400.9Z" style="fill:#dbdbdb"></path><path d="M646.14,405.08v16.77l-6-5-6,5V405.08a1.52,1.52,0,0,0-1.53-1.53h12A1.53,1.53,0,0,1,646.14,405.08Z" style="fill:#263238"></path><path d="M581.33,301.69c0,7.09-8.44,13.63-18.28,13.63s-18.27-6.34-18.27-13.63Z" style="fill:#452B01"></path><path d="M581.33,301.69c0,7.09-8.44,13.63-18.28,13.63s-18.27-6.34-18.27-13.63Z" style="opacity:0.1"></path><path d="M577.85,300c-4.39-10.65-11-27.51-15.2-38.36h.7c-1.86,4.8-5.62,14.43-7.5,19.22s-5.74,14.38-7.69,19.14c3.12-8.65,7.53-20.41,10.81-29,.1-.28,4.09-10.67,4-10.55l.35.91c4.16,10.93,10.6,27.75,14.5,38.63Z" style="fill:#dbdbdb"></path><rect x="543.73" y="299.21" width="38.63" height="2.48" style="fill:#452B01"></rect><path d="M692.11,324c0,7.09-8.44,13.64-18.28,13.64S655.56,331.3,655.56,324Z" style="fill:#452B01"></path><path d="M692.11,324c0,7.09-8.44,13.64-18.28,13.64S655.56,331.3,655.56,324Z" style="opacity:0.1"></path><path d="M688.63,322.34c-4.38-10.64-11-27.5-15.19-38.35h.7c-1.86,4.79-5.63,14.42-7.51,19.21s-5.74,14.39-7.69,19.14c3.13-8.64,7.53-20.41,10.82-29,.09-.28,4.08-10.66,4-10.55l.35.92c4.16,10.92,10.59,27.74,14.49,38.62Z" style="fill:#dbdbdb"></path><rect x="654.52" y="321.53" width="38.63" height="2.48" style="fill:#452B01"></rect><path d="M673.09,284.55c-3.05-.36-4.75-2.35-8.09-4.15-4.85-2.61-23.78-7-32.16-8.06-3.32-.41-10.72,1.14-15.62.16s-11.12-5.27-14.35-6.17c-8.12-2.29-27.29-5.5-32.79-5-3.76.38-6.09,1.56-9.05.71-4.81-1.34-4-8.35,2.2-7.11s7.73,2.81,15.9,4.3c3.53.65,24.94,2.42,30.88,3.61a34.35,34.35,0,0,1,8.62,2.62,34.36,34.36,0,0,1,9,.9c5.95,1.19,26.37,7.81,29.89,8.58,8.1,1.77,10.15.91,16.33,2.15S678.05,285.16,673.09,284.55Z" style="fill:#452B01"></path><path d="M673.09,284.55c-3.05-.36-4.75-2.35-8.09-4.15-4.85-2.61-23.78-7-32.16-8.06-3.32-.41-10.72,1.14-15.62.16s-11.12-5.27-14.35-6.17c-8.12-2.29-27.29-5.5-32.79-5-3.76.38-6.09,1.56-9.05.71-4.81-1.34-4-8.35,2.2-7.11s7.73,2.81,15.9,4.3c3.53.65,24.94,2.42,30.88,3.61a34.35,34.35,0,0,1,8.62,2.62,34.36,34.36,0,0,1,9,.9c5.95,1.19,26.37,7.81,29.89,8.58,8.1,1.77,10.15.91,16.33,2.15S678.05,285.16,673.09,284.55Z" style="opacity:0.1"></path><rect x="578.93" y="367.13" width="77.99" height="13.4" style="fill:#452B01"></rect><rect x="578.93" y="367.13" width="77.99" height="13.4" style="opacity:0.1"></rect><rect x="582.97" y="363.83" width="69.9" height="3.3" style="fill:#452B01"></rect><rect x="582.97" y="363.83" width="69.9" height="3.3" style="opacity:0.30000000000000004"></rect><path d="M622.73,363.84h-9.61s-2-8.38-1.55-22,4.52-72.5,4.52-72.5h3.68s4,58.86,4.52,72.5S622.73,363.84,622.73,363.84Z" style="fill:#452B01"></path><path d="M622.73,363.84h-9.61s-2-8.38-1.55-22,4.52-72.5,4.52-72.5h3.68s4,58.86,4.52,72.5S622.73,363.84,622.73,363.84Z" style="opacity:0.1"></path><path d="M620.93,260.38c0,4.95-1.23,6.31-1.23,6.31h-3.54s-1.24-1.36-1.24-6.31,2.33-20.57,2.33-20.57h1.34S620.93,255.43,620.93,260.38Z" style="fill:#452B01"></path><path d="M620.93,260.38c0,4.95-1.23,6.31-1.23,6.31h-3.54s-1.24-1.36-1.24-6.31,2.33-20.57,2.33-20.57h1.34S620.93,255.43,620.93,260.38Z" style="opacity:0.1"></path><path d="M622.56,268.69a4.63,4.63,0,1,1-4.63-4.63A4.64,4.64,0,0,1,622.56,268.69Z" style="fill:#37474f"></path><path d="M621.62,239.81a3.7,3.7,0,1,1-3.69-3.7A3.69,3.69,0,0,1,621.62,239.81Z" style="fill:#37474f"></path></g><g id="freepik--Table--inject-53"><path d="M48,448.07c209.48-.61,444.46-.62,653.94,0-209.48.62-444.46.61-653.94,0Z" style="fill:#263238"></path></g><g id="freepik--character-2--inject-53"><polygon points="386.68 448.07 248.43 448.07 255.78 286.73 358.95 286.73 386.68 448.07" style="fill:#dbdbdb"></polygon><polygon points="267.38 286.73 260.54 448.07 248.43 448.07 255.78 286.73 267.38 286.73" style="fill:#a6a6a6"></polygon><path d="M385.84,300.11c37.39,37.19,85,114.72,77.14,131.45-8.74,18.64-60.21-31.68-60.13-34.84.06-2.39-19.36-51-34-86.26S376.59,290.91,385.84,300.11Z" style="fill:#eb9481"></path><path d="M402.51,396.79c-1.72-5.2-28.06-69.22-35.66-89.49s-1.47-26.86,18.8-8.78S450,374.76,461,407.72c10.6,31.76-4,35.4-25.16,21.36C418.52,417.59,402.51,396.79,402.51,396.79Z" style="fill:#455a64"></path><path d="M448.06,435.45a57.8,57.8,0,0,1-12.19-6.37c-17.35-11.49-33.36-32.29-33.36-32.29-1.72-5.2-28.06-69.22-35.66-89.49-4.29-11.42-4.21-18.49.29-19.26Z" style="opacity:0.1"></path><path d="M408.18,448.07H269.84c.36-2.85,35.62-138.5,63.41-161.38,11.84-9.75,33.5-2.45,36.25-.18C396.17,308.49,410.21,446.41,408.18,448.07Z" style="fill:#ebebeb"></path><polygon points="357.98 321.94 363.49 310.83 372.95 320.45 370.63 328.77 361.98 329.76 357.98 321.94" style="fill:#263238"></polygon><polygon points="361.98 329.76 356 408.42 370.15 435.53 383.11 403.41 370.63 328.77 361.98 329.76" style="fill:#263238"></polygon><path d="M408.18,448.07H269.84c.35-2.85,35.62-138.5,63.41-161.38,0,0,12.24,39.57,13.13,42.08s24.9,39.68,24.9,39.68,5.08-30.64,5.8-39.68c.24-3-4.57-35.25-5.35-40.12C396.94,316.19,410.15,446.46,408.18,448.07Z" style="fill:#455a64"></path><path d="M371.28,368.45c0,25.95-.8,53.35-2.17,79.3.05-26,.79-53.37,2.17-79.3Z" style="fill:#263238"></path><path d="M367.29,377a2.08,2.08,0,0,1-4.16,0,2.08,2.08,0,0,1,4.16,0Zm0,0a1.58,1.58,0,0,0-3.16,0,1.58,1.58,0,0,0,3.16,0Z" style="fill:#263238"></path><path d="M366.44,396.13a2.08,2.08,0,0,1-4.15,0,2.08,2.08,0,0,1,4.15,0Zm0,0a1.58,1.58,0,1,0-3.15,0,1.58,1.58,0,1,0,3.15,0Z" style="fill:#263238"></path><path d="M365.6,415.31a2.08,2.08,0,0,1-4.16,0,2.08,2.08,0,0,1,4.16,0Zm0,0a1.58,1.58,0,0,0-3.16,0,1.58,1.58,0,0,0,3.16,0Z" style="fill:#263238"></path><path d="M364.75,434.48a2.08,2.08,0,0,1-4.16,0,2.08,2.08,0,0,1,4.16,0Zm0,0a1.58,1.58,0,0,0-3.16,0,1.58,1.58,0,1,0,3.16,0Z" style="fill:#263238"></path><path d="M316,300.11c-37.39,37.19-85,114.72-77.14,131.45C247.57,450.2,299,399.88,299,396.72c-.06-2.39,19.36-51,34-86.26S325.22,290.91,316,300.11Z" style="fill:#eb9481"></path><path d="M299.3,396.79c1.72-5.2,28.06-69.22,35.66-89.49s1.47-26.86-18.8-8.78-64.39,76.24-75.39,109.2c-10.61,31.76,4,35.4,25.16,21.36C283.29,417.59,299.3,396.79,299.3,396.79Z" style="fill:#455a64"></path><path d="M295.93,405.07c2.24-6.08,4.57-12.12,6.91-18.16s4.76-12,7.14-18.06l7.33-18,3.73-9c1.28-3,2.52-6,3.82-8.92-1.11,3.05-2.27,6.07-3.41,9.1l-3.5,9.06-7.14,18.06c-2.44,6-4.85,12-7.33,18S298.51,399.14,295.93,405.07Z" style="fill:#263238"></path><path d="M319.5,347.05a35.89,35.89,0,0,1,2.57-4.38c.48-.69,1-1.38,1.46-2.06s1-1.33,1.55-2a23.3,23.3,0,0,1-2.45,4.47A30.6,30.6,0,0,1,319.5,347.05Z" style="fill:#263238"></path><path d="M461.47,433.29c-9.88,10.23-29.2,9.13-85.55,11.16-7.79.28-26.11-55.35-17.8-56.08,10.47-.92,51.29-2.21,54.28-1.93C437.68,388.82,468.16,426.35,461.47,433.29Z" style="fill:#eb9481"></path><path d="M461.47,433.29c-9.88,10.23-29.2,9.13-85.55,11.16-7.79.28-26.11-55.35-17.8-56.08,10.47-.92,51.29-2.21,54.28-1.93C437.68,388.82,468.16,426.35,461.47,433.29Z" style="opacity:0.1"></path><path d="M377,390.3s-20.83-4.52-34.59-6.83c-7.68-1.29-21-2.34-27.11-.7-9.09,2.43-45.52,18.44-41.83,27.35,3.34,8.08,32.9-9.65,32.9-9.65s-31.41,15.25-25.6,24.23,36.54-15.48,36.54-15.48-31.92,16.39-24.47,24.7c5.64,6.28,34.72-14.31,34.72-14.31s-27.33,14.28-21.82,21c6.1,7.42,34.14-9.9,34.14-9.9,16.89,14.69,30.94,14.78,41,13.66C383.21,444.08,377,390.3,377,390.3Z" style="fill:#eb9481"></path><path d="M377,390.3s-20.83-4.52-34.59-6.83c-7.68-1.29-21-2.34-27.11-.7-9.09,2.43-45.52,18.44-41.83,27.35,3.34,8.08,32.9-9.65,32.9-9.65s-31.41,15.25-25.6,24.23,36.54-15.48,36.54-15.48-31.92,16.39-24.47,24.7c5.64,6.28,34.72-14.31,34.72-14.31s-27.33,14.28-21.82,21c6.1,7.42,34.14-9.9,34.14-9.9,16.89,14.69,30.94,14.78,41,13.66C383.21,444.08,377,390.3,377,390.3Z" style="opacity:0.1"></path><path d="M316.85,394.51c-3.75,1.65-7.57,3.3-11.16,5.29s-7.12,4.1-10.51,6.41c-8.33,5.67-12.65,10.52-12.35,10.25,7.09-6.4,19.84-13.71,23.44-15.69s7.07-4.15,10.66-6.13C317,394.59,316.94,394.47,316.85,394.51Z" style="fill:#263238"></path><path d="M324.26,407.35c-4.71,2.33-9.46,4.46-14.06,7s-8.7,5.31-13.1,8.14c-.33.22-.11.33.24.13,4.51-2.66,8.87-4.76,13.4-7.36s9-5.37,13.58-7.79C324.39,407.42,324.33,407.32,324.26,407.35Z" style="fill:#263238"></path><path d="M332.59,417.24c-7.36,3.18-14.14,7.72-20.67,12.33-.33.23,0,.34.33.12,6.79-4.23,12.1-7.59,20.45-12.2C332.84,417.42,332.75,417.17,332.59,417.24Z" style="fill:#263238"></path><path d="M364.61,386.84,404,447.75s49-2.62,58.12-13.9c6-7.43-24-47.13-52.17-47.64Z" style="fill:#455a64"></path><path d="M441.43,400.09c-3.93-3.92-15.23-13.39-31.48-13.92-.15,0-.19.22,0,.24,12.06,1.56,27.28,10.42,31.38,13.87C441.4,400.37,441.53,400.19,441.43,400.09Z" style="fill:#263238"></path><path d="M418.54,440.9c-4-6.93-8.32-13.64-12.68-20.33s-8.71-13.42-13.24-20c-2.56-3.73-5.1-7.47-7.79-11.11-.07-.09-.25,0-.18.11,4,6.92,8.28,13.65,12.59,20.37S406,423.35,410.4,430c2.52,3.75,5.1,7.47,7.79,11.1C418.32,441.28,418.66,441.11,418.54,440.9Z" style="fill:#263238"></path><path d="M364.64,386.14a67.06,67.06,0,0,1,9.3-.62c3.11-.09,6.22-.12,9.33-.13,6.19,0,19.31-.74,30.45,1.06.12,0-.61.52-.73.49-5.26-1.12-44.49.41-47.65.13a5.63,5.63,0,0,1,.24.69c0,.17-.15.34-.29.2-.35-.32-.58-.69-.9-1A.45.45,0,0,1,364.64,386.14Z" style="fill:#263238"></path><path d="M454.78,438.82a40.39,40.39,0,0,1-6.19,1.75c-2.09.46-4.2.84-6.31,1.22q-6.34,1.06-12.73,2c-8.5,1.24-17,2.4-25.54,3.78l.18.08L401,443.59l2.93,4.28.05.08h.12c4.32-.13,8.62-.45,12.91-.85s8.58-.94,12.85-1.59,8.52-1.42,12.73-2.41c2.11-.5,4.2-1.06,6.27-1.72A29.4,29.4,0,0,0,454.78,438.82Z" style="fill:#263238"></path><path d="M366.35,308.08c-7.74,2.74-22.69-7.91-29.15-17.16-.44-.63-.18-7.85-.27-16.64-.09-5.33-.3-11.27-.89-16.67-.13-1.11,34.78,4.54,34.78,4.54s-2.1,11.69-1,21.1a12.11,12.11,0,0,0,.48,2.19c0,.1.06.22.09.36C371.51,289.94,373.82,305.42,366.35,308.08Z" style="fill:#eb9481"></path><path d="M338.14,257.52c2.56,9,10.65,30.41,28.77,28.85a21.08,21.08,0,0,0,3.45-.56,1.54,1.54,0,0,0-.09-.37,14.21,14.21,0,0,1-.48-2.18c-1.08-9.43,1-21.12,1-21.12S345.64,258.07,338.14,257.52Z" style="fill:#263238"></path><path d="M327.47,215.48c-3.2,12.22,4.57,46.85,13.47,54.29,12.9,10.77,33.33,11,42.31-4.32,8.7-14.87-2.23-59.82-12.1-66.51C356.6,189.1,332.2,197.43,327.47,215.48Z" style="fill:#eb9481"></path><path d="M358.26,235.74c0-.08-.16.16-.13.25.6,2.32.89,5.07-1,6.32-.06,0,0,.15,0,.12C359.63,241.49,359.2,237.84,358.26,235.74Z" style="fill:#263238"></path><path d="M355.63,233.78c-3.82.56-2.42,8.15,1.12,7.63S358.83,233.31,355.63,233.78Z" style="fill:#263238"></path><path d="M371.83,233.44c0-.1.2.08.22.17.36,2.37,1.17,5,3.44,5.4.07,0,.08.13,0,.14C372.83,239.26,371.79,235.73,371.83,233.44Z" style="fill:#263238"></path><path d="M373.47,230.6c3.73-1,5.43,6.54,2,7.45S370.35,231.42,373.47,230.6Z" style="fill:#263238"></path><path d="M351.4,231.58a29.93,29.93,0,0,0,3.13-.48,5.14,5.14,0,0,0,3.1-1.11,1.64,1.64,0,0,0,.1-2c-1-1.22-2.48-1.34-3.93-1.16a6,6,0,0,0-3.84,1.9A1.74,1.74,0,0,0,351.4,231.58Z" style="fill:#263238"></path><path d="M375.93,224.41a28,28,0,0,1-3.16-.22,5.15,5.15,0,0,1-3.18-.85,1.62,1.62,0,0,1-.26-2c.84-1.3,2.36-1.54,3.82-1.48a5.88,5.88,0,0,1,4,1.58A1.74,1.74,0,0,1,375.93,224.41Z" style="fill:#263238"></path><path d="M359.62,257.81c.66.45,1.37,1.1,2.23,1a6.47,6.47,0,0,0,2.42-1.06c.07,0,.16,0,.12.1a3.22,3.22,0,0,1-2.74,1.83,2.57,2.57,0,0,1-2.24-1.74C359.35,257.83,359.52,257.75,359.62,257.81Z" style="fill:#263238"></path><path d="M360.79,250.32a8.15,8.15,0,0,0,6,2.57,10,10,0,0,0,2.91-.4,3,3,0,0,0,.53-.16,3.79,3.79,0,0,0,.5-.18.59.59,0,0,0,.38-.61v0a1,1,0,0,0-.06-.23v0l-.05-.21c-.28-1.81-1-4.53-1-4.53.73.2,4.38,1.1,4.15.16-1.91-7.74-4-16.35-7.57-23.65a.22.22,0,0,0-.42.14c1.54,7.52,4.39,14.71,6.06,22.23a14,14,0,0,0-4-.45c-.25.12,1.41,5.23,1.47,6.06a.21.21,0,0,1,0,.09c-3,.95-5.43.45-8.76-1.05C360.77,250,360.62,250.16,360.79,250.32Z" style="fill:#263238"></path><path d="M368.46,251.77a9.73,9.73,0,0,1-3.26,3.65,4.33,4.33,0,0,1-2.57.64c-2-.15-2.33-1.86-2.26-3.4a10.54,10.54,0,0,1,.43-2.41A12.49,12.49,0,0,0,368.46,251.77Z" style="fill:#263238"></path><path d="M365.2,255.42a4.33,4.33,0,0,1-2.57.64c-2-.15-2.33-1.86-2.26-3.4C362.42,252.5,364.67,253.5,365.2,255.42Z" style="fill:#ff98b9"></path><path d="M330.49,247.67c5.44.17,8.07-8.45,8.6-11.95s-4.15-17.56-2.84-22.92,6-9.31,10.46-9.09,11.27,4.4,14.29,3.36,2.13-7.92,4.29-8.44c4.74-1.16,12,9,14.14,13.94,0,0-3.08-22.06-27.92-18.42-22.65,3.31-26.06,20.38-26.36,27.53C324.58,235.37,330.49,247.67,330.49,247.67Z" style="fill:#263238"></path><path d="M355.49,250.18a10.57,10.57,0,1,1,8.95-14.1h0a10.56,10.56,0,0,1-8.95,14.1Zm-1.87-19.65a9.16,9.16,0,1,0,9.49,6A9.24,9.24,0,0,0,353.62,230.53Z" style="fill:#ebebeb"></path><path d="M379.19,245c-4,.38-8.07-3.39-9.23-8.79a12.62,12.62,0,0,1,.62-7.7,6.6,6.6,0,0,1,11-2.37,12.66,12.66,0,0,1,3.74,6.76c1.22,5.7-1.23,11.08-5.47,12A5.5,5.5,0,0,1,379.19,245Zm-2.93-19.48a3.08,3.08,0,0,0-.53.08,5.6,5.6,0,0,0-3.85,3.49,11.15,11.15,0,0,0-.54,6.82c1.06,4.94,4.75,8.36,8.24,7.6s5.45-5.38,4.39-10.31a11.29,11.29,0,0,0-3.3-6A5.86,5.86,0,0,0,376.26,225.47Z" style="fill:#ebebeb"></path><path d="M364.35,237.35l-1.11-.86c1.28-1.66,4.53-4.21,7.63-2.05l-.8,1.16C367.29,233.66,364.47,237.2,364.35,237.35Z" style="fill:#ebebeb"></path><path d="M321.48,249.83l-1.36-.37c.17-.64,1.77-6.25,4.75-7.42,2.78-1.08,19.07-3.23,19.87-3.32l.17,1.4c-5.42.64-17.38,2.4-19.53,3.24C323.42,244.13,321.9,248.29,321.48,249.83Z" style="fill:#ebebeb"></path><path d="M336.06,243.61s-8.56-10.79-13.5-7.67,2,19.09,8.1,21a6.1,6.1,0,0,0,8-3.77Z" style="fill:#eb9481"></path><path d="M324.65,240.47c-.09,0-.1.13,0,.16,4.31,1.45,6.76,5.22,8.56,9.17-1.35-1.48-3.1-2.23-5.1-.61-.1.08,0,.25.13.21a3.75,3.75,0,0,1,4.21,1.07,18.22,18.22,0,0,1,2.18,3.22c.22.36.89.12.72-.3l0-.1C335.07,247.92,330.45,240.66,324.65,240.47Z" style="fill:#263238"></path><path d="M370.46,285.75l-8,20.43-25.5-25.59-7.11,8.32s25.05,40.77,25.2,38.92l8.27-17.62,12.21,12.13-1.21-30.66Z" style="fill:#ebebeb"></path><path d="M375.75,307.15c-.37-5.06-.6-10.16-1.2-15.19,0-.18-.31-.26-.35,0-1,4.89.54,24.22.55,28.86l-.06,0c-.51-.53-11.31-10.67-11.41-10.51-1.8,2.8-7.87,15.63-8.29,16.8-4-6.48-20.77-32-25.44-38.12a.18.18,0,0,0-.31.18c3.51,6.84,25.23,40.53,25.53,40.44.21.16,7.76-15.65,8.65-18.63,1.83,2.21,12.74,13.67,12.78,12.92A159.46,159.46,0,0,0,375.75,307.15Z" style="fill:#263238"></path><path d="M241.2,434.34c9.89,10.22,29.22,9.09,85.56,11.07,7.8.27,26.06-55.38,17.75-56.1-10.47-.91-51.29-2.16-54.29-1.87C265,389.84,234.5,427.4,241.2,434.34Z" style="fill:#eb9481"></path><path d="M325.67,391.26s20.83-4.54,34.58-6.87c7.68-1.3,21-2.35,27.11-.73,9.09,2.43,45.54,18.4,41.86,27.32-3.33,8.07-32.91-9.62-32.91-9.62s31.43,15.21,25.63,24.2-36.56-15.44-36.56-15.44,31.93,16.35,24.49,24.67c-5.63,6.29-34.74-14.27-34.74-14.27s27.36,14.25,21.85,21c-6.09,7.42-34.15-9.87-34.15-9.87-16.87,14.71-30.93,14.82-40.94,13.7C319.47,445.05,325.67,391.26,325.67,391.26Z" style="fill:#eb9481"></path><path d="M385.78,395.4c3.76,1.66,7.57,3.3,11.17,5.29s7.12,4.09,10.52,6.39c8.33,5.66,12.66,10.51,12.36,10.24-7.1-6.39-19.86-13.68-23.46-15.67s-7.08-4.13-10.67-6.11C385.61,395.49,385.69,395.36,385.78,395.4Z" style="fill:#263238"></path><path d="M378.39,408.26c4.7,2.32,9.46,4.45,14.06,7s8.71,5.31,13.11,8.13c.33.22.11.33-.24.12-4.51-2.64-8.88-4.74-13.41-7.33s-9-5.37-13.58-7.78C378.25,408.33,378.32,408.22,378.39,408.26Z" style="fill:#263238"></path><path d="M370.06,418.15c7.37,3.18,14.15,7.71,20.69,12.31.33.23,0,.34-.33.13-6.8-4.23-12.11-7.59-20.47-12.18C369.82,418.33,369.91,418.08,370.06,418.15Z" style="fill:#263238"></path><path d="M338,387.79l-39.35,60.95s-49-2.57-58.13-13.84c-6-7.43,24-47.16,52.12-47.69Z" style="fill:#455a64"></path><path d="M261.21,401.12c3.92-3.92,15.22-13.41,31.47-14,.14,0,.18.22,0,.24-12.07,1.58-27.27,10.45-31.37,13.9C261.24,401.39,261.11,401.22,261.21,401.12Z" style="fill:#263238"></path><path d="M284.14,441.91c4-6.94,8.3-13.65,12.66-20.35s8.7-13.43,13.22-20c2.56-3.73,5.09-7.47,7.78-11.11.07-.1.24,0,.18.11-4,6.92-8.27,13.66-12.57,20.38s-8.7,13.43-13.14,20.08c-2.52,3.76-5.1,7.48-7.78,11.12C284.36,442.29,284,442.11,284.14,441.91Z" style="fill:#263238"></path><path d="M338,387.08a68.58,68.58,0,0,0-9.29-.6c-3.11-.09-6.23-.12-9.34-.12-6.19,0-19.3-.72-30.44,1.09-.13,0,.6.52.72.49,5.26-1.13,44.49.36,47.65.08a5.58,5.58,0,0,0-.23.69c0,.16.14.34.29.2.35-.32.57-.7.9-1A.46.46,0,0,0,338,387.08Z" style="fill:#263238"></path><path d="M247.9,439.86a40.39,40.39,0,0,0,6.19,1.75c2.09.46,4.2.83,6.32,1.21q6.34,1.06,12.72,2c8.51,1.23,17,2.39,25.54,3.76l-.17.08,3.23-4.06-2.92,4.29-.05.08h-.12c-4.32-.13-8.62-.44-12.92-.84s-8.57-.93-12.84-1.58-8.53-1.4-12.74-2.4c-2.11-.49-4.2-1.05-6.27-1.71A28.82,28.82,0,0,1,247.9,439.86Z" style="fill:#263238"></path><path d="M332.17,292.47c-.31,8.53-.81,17.89-1.33,26.44l-.29-.64,7.3,5.35,7.27,5.38.47.35c-1,4.92-1.91,9.84-2.95,14.74l-.33-.95c9.83,8.23,19.55,16.61,29,25.31C361,360.8,351,352.79,341.06,344.65l-.44-.37c.94-4.91,2-9.81,3-14.71l.36.95L336.8,325l-7.14-5.56-.33-.25,0-.39c.83-8.54,1.77-17.85,2.8-26.33Z" style="fill:#263238"></path><path d="M374.16,294.48c3.57,8.42,6.92,16.93,10.19,25.47l.14.36-.2.36-4.16,7.44,0-.9,2.38,4.93c.87,1.77,1.68,3.56,2.53,5.34l-.16.4c-4.3,10.3-8.76,20.53-13.63,30.57,3.61-10.56,7.63-21,11.82-31.31l0,.79c-1.48-3-3.46-7.26-4.91-10.36l.25-.42,4.35-7.33-.06.71c-3-8.64-5.9-17.31-8.59-26Z" style="fill:#263238"></path></g><g id="freepik--Device--inject-53"><rect x="340.92" y="442.07" width="125.39" height="6" style="fill:#dbdbdb"></rect><polygon points="466.31 442.07 466.31 448.06 393.28 448.06 397.86 442.07 466.31 442.07" style="fill:#c7c7c7"></polygon><polygon points="416.75 448.06 525.44 448.06 542.39 365.39 433.71 365.39 416.75 448.06" style="fill:#c7c7c7"></polygon><polygon points="422.23 448.06 530.91 448.06 547.87 365.39 439.19 365.39 422.23 448.06" style="fill:#dbdbdb"></polygon><path d="M491.49,406.73c-.55,3.85-3.29,7-6.1,7s-4.64-3.12-4.08-7,3.29-7,6.1-7S492.05,402.88,491.49,406.73Z" style="fill:#fff"></path></g><g id="freepik--Gavel--inject-53"><rect x="67.3" y="434.58" width="91.49" height="13.49" transform="translate(226.09 882.65) rotate(180)" style="fill:#452B01"></rect><rect x="67.3" y="434.58" width="91.49" height="13.49" transform="translate(226.09 882.65) rotate(180)" style="opacity:0.1"></rect><rect x="72.41" y="430.73" width="81.28" height="3.85" transform="translate(226.09 865.31) rotate(180)" style="fill:#452B01"></rect><polygon points="181.84 448.07 130.45 403.93 135.48 397.82 188.64 439.81 181.84 448.07" style="fill:#452B01"></polygon><polygon points="181.84 448.07 130.45 403.93 135.48 397.82 188.64 439.81 181.84 448.07" style="opacity:0.1"></polygon><rect x="99.15" y="368.04" width="38.17" height="41.4" transform="translate(274.16 13.53) rotate(39.48)" style="fill:#452B01"></rect><rect x="99.15" y="368.04" width="38.17" height="41.4" transform="translate(274.16 13.53) rotate(39.48)" style="opacity:0.1"></rect><rect x="76.21" y="408.06" width="44.61" height="9.24" transform="translate(284.88 31.53) rotate(39.48)" style="fill:#452B01"></rect><rect x="76.21" y="408.06" width="44.61" height="9.24" transform="translate(284.88 31.53) rotate(39.48)" style="opacity:0.1"></rect><rect x="86.61" y="404.31" width="34.72" height="3.47" transform="translate(281.92 26.55) rotate(39.48)" style="fill:#452B01"></rect><rect x="86.61" y="404.31" width="34.72" height="3.47" transform="translate(281.92 26.55) rotate(39.48)" style="opacity:0.30000000000000004"></rect><polygon points="84.23 394.93 89.47 396.35 116.27 418.43 118.66 423.29 84.23 394.93" style="fill:#452B01"></polygon><rect x="115.65" y="360.18" width="44.61" height="9.24" transform="translate(12.47 734.07) rotate(-140.52)" style="fill:#452B01"></rect><rect x="115.65" y="360.18" width="44.61" height="9.24" transform="translate(12.47 734.07) rotate(-140.52)" style="opacity:0.1"></rect><rect x="115.14" y="369.69" width="34.72" height="3.47" transform="translate(-1.42 742.34) rotate(-140.52)" style="fill:#452B01"></rect><rect x="115.14" y="369.69" width="34.72" height="3.47" transform="translate(-1.42 742.34) rotate(-140.52)" style="opacity:0.30000000000000004"></rect><polygon points="152.23 382.54 147 381.12 120.2 359.05 117.8 354.18 152.23 382.54" style="fill:#452B01"></polygon><rect x="131.68" y="397.84" width="11.26" height="13.22" transform="matrix(0.77, 0.64, -0.64, 0.77, 288.51, 4.99)" style="fill:#452B01"></rect></g></svg>
